<?xml version="1.0" encoding="utf-8"?>
<!-- Generator: Adobe Illustrator 24.0.1, SVG Export Plug-In . SVG Version: 6.00 Build 0)  -->
<svg version="1.1" xmlns="http://www.w3.org/2000/svg" xmlns:xlink="http://www.w3.org/1999/xlink" x="0px" y="0px"
	 viewBox="0 0 500 500" style="enable-background:new 0 0 500 500;" xml:space="preserve">
<style type="text/css">
	.st0{fill:#E0E0E0;}
	.st1{fill:#FAFAFA;}
	.st2{fill:#EBEBEB;}
	.st3{fill:#F5F5F5;}
	.st4{fill:#FFFFFF;}
	.st5{fill:none;stroke:#FBFBFB;stroke-width:0.25;stroke-miterlimit:10;}
	.st6{display:none;}
	.st7{display:inline;fill:#EBEBEB;}
	.st8{fill:#263238;}
	.st9{fill:#E8505B;}
	.st10{opacity:0.24;}
	.st11{opacity:0.3;}
	.st12{fill:#455A64;}
	.st13{fill:#FFBE9D;}
	.st14{fill:#EB996E;}
</style>
<g id="Background_Complete">
	<g>
		<g>
			<g>
				<g>
					<g>
						<g>
							
								<rect x="120.77" y="381.1" transform="matrix(6.123234e-17 -1 1 6.123234e-17 -284.7166 533.7877)" class="st0" width="7.52" height="56.3"/>
						</g>
					</g>
				</g>
			</g>
			<g>
				<g>
					<g>
						<g>
							<g>
								<path class="st1" d="M104.06,405.8c0.2,0,0.35,1.58,0.35,3.52c0,1.95-0.16,3.52-0.35,3.52c-0.2,0-0.35-1.58-0.35-3.52
									C103.7,407.38,103.86,405.8,104.06,405.8z"/>
							</g>
						</g>
					</g>
				</g>
			</g>
			<g>
				<g>
					<g>
						<g>
							<g>
								<path class="st1" d="M102.83,405.65c0.2,0,0.35,1.58,0.35,3.52c0,1.95-0.16,3.52-0.35,3.52c-0.2,0-0.35-1.58-0.35-3.52
									C102.48,407.23,102.63,405.65,102.83,405.65z"/>
							</g>
						</g>
					</g>
				</g>
			</g>
			<g>
				<g>
					<g>
						<g>
							<g>
								<path class="st1" d="M148.33,405.8c0.2,0,0.35,1.58,0.35,3.52c0,1.95-0.16,3.52-0.35,3.52c-0.2,0-0.35-1.58-0.35-3.52
									C147.98,407.38,148.14,405.8,148.33,405.8z"/>
							</g>
						</g>
					</g>
				</g>
			</g>
			<g>
				<g>
					<g>
						<g>
							<g>
								<path class="st1" d="M147.11,405.65c0.2,0,0.35,1.58,0.35,3.52c0,1.95-0.16,3.52-0.35,3.52c-0.2,0-0.35-1.58-0.35-3.52
									C146.75,407.23,146.91,405.65,147.11,405.65z"/>
							</g>
						</g>
					</g>
				</g>
			</g>
			<g>
				<g>
					<g>
						<g>
							<g>
								<path class="st1" d="M139.75,409.48c0,0.2-6.45,0.35-14.4,0.35c-7.96,0-14.4-0.16-14.4-0.35c0-0.2,6.45-0.35,14.4-0.35
									C133.3,409.13,139.75,409.28,139.75,409.48z"/>
							</g>
						</g>
					</g>
				</g>
			</g>
		</g>
		<g>
			<g>
				<g>
					<g>
						<g>
							
								<rect x="116.77" y="418.73" transform="matrix(6.123234e-17 -1 1 6.123234e-17 -322.5857 571.1693)" class="st0" width="15.04" height="56.3"/>
						</g>
					</g>
				</g>
			</g>
			<g>
				<g>
					<g>
						<g>
							<g>
								<path class="st1" d="M153.16,450.17c0.01,0.01-0.1,0.07-0.31,0.18c-0.21,0.11-0.52,0.25-0.94,0.43
									c-0.84,0.34-2.1,0.83-3.82,1.09c-1.69,0.24-3.95,0.31-6.19-0.88c-1.1-0.59-2.15-1.48-2.94-2.67
									c-0.78-1.18-1.28-2.73-1.02-4.33c0.13-0.8,0.47-1.59,1.04-2.24c0.55-0.65,1.43-1.13,2.37-1.08
									c0.94,0.04,1.79,0.58,2.39,1.29c0.6,0.71,1,1.61,1.09,2.57c0.22,1.91-0.58,3.89-1.94,5.33c-1.34,1.5-3.34,2.41-5.41,2.64
									c-2.08,0.25-4.24-0.08-6.28-0.78c-2.04-0.7-4.06-1.85-5.49-3.69c-0.7-0.91-1.2-2.05-1.28-3.25c-0.1-1.2,0.28-2.49,1.2-3.38
									c0.46-0.45,1.1-0.74,1.76-0.77c0.66-0.03,1.31,0.18,1.84,0.52c1.09,0.67,1.78,1.83,2.07,3.04c0.53,2.46-0.44,5.02-2.22,6.63
									c-1.78,1.62-4.11,2.34-6.34,2.58c-2.24,0.22-4.49,0.06-6.57-0.65c-2.07-0.69-3.93-2.05-5-3.89
									c-1.09-1.8-1.45-4.07-0.63-5.98c0.39-0.94,1.26-1.78,2.3-1.94c1.01-0.19,2.05,0.09,2.84,0.68c1.59,1.26,1.85,3.42,1.34,5.07
									c-0.52,1.69-1.66,2.99-2.84,4c-2.41,2.03-5.26,2.91-7.72,3c-2.49,0.09-4.59-0.6-6.12-1.39c-1.54-0.8-2.56-1.71-3.19-2.36
									c-0.31-0.33-0.54-0.59-0.67-0.78c-0.14-0.19-0.21-0.28-0.2-0.29c0.07-0.1,1.13,1.64,4.19,3.19
									c1.52,0.74,3.57,1.36,5.98,1.24c2.38-0.12,5.13-1.01,7.41-2.98c1.13-0.98,2.18-2.23,2.64-3.77
									c0.46-1.49,0.16-3.42-1.17-4.44c-0.65-0.49-1.55-0.72-2.37-0.56c-0.84,0.14-1.5,0.77-1.84,1.6
									c-0.71,1.67-0.4,3.74,0.62,5.39c1,1.69,2.7,2.93,4.66,3.58c1.96,0.66,4.13,0.82,6.28,0.6c2.13-0.23,4.32-0.93,5.94-2.41
									c1.6-1.44,2.47-3.79,2-5.95c-0.26-1.05-0.86-2.04-1.76-2.59c-0.88-0.58-2.03-0.56-2.75,0.17c-0.73,0.7-1.08,1.79-0.98,2.82
									c0.06,1.05,0.5,2.04,1.13,2.88c1.29,1.68,3.21,2.79,5.15,3.47c1.97,0.68,4.03,1,5.99,0.77c1.95-0.22,3.78-1.04,5.03-2.42
									c1.27-1.33,2-3.14,1.81-4.84c-0.14-1.65-1.4-3.27-2.92-3.37c-0.75-0.05-1.47,0.32-1.95,0.88c-0.5,0.56-0.81,1.27-0.93,1.98
									c-0.25,1.45,0.19,2.88,0.91,4c0.73,1.12,1.72,1.99,2.75,2.56c2.1,1.16,4.31,1.15,5.97,0.95c1.69-0.22,2.96-0.65,3.8-0.95
									C152.72,450.33,153.15,450.14,153.16,450.17z"/>
							</g>
						</g>
					</g>
				</g>
			</g>
		</g>
		<g>
			<g>
				<g>
					<g>
						<g>
							
								<rect x="113.76" y="400.64" transform="matrix(6.123234e-17 -1 1 6.123234e-17 -299.4743 553.0859)" class="st2" width="26.1" height="51.27"/>
						</g>
					</g>
				</g>
			</g>
			<g>
				<g>
					<g>
						<g>
							<g>
								<path class="st0" d="M109.69,414.13c0.2,0,0.35,5.66,0.35,12.63c0,6.98-0.16,12.63-0.35,12.63c-0.2,0-0.35-5.65-0.35-12.63
									C109.33,419.78,109.49,414.13,109.69,414.13z"/>
							</g>
						</g>
					</g>
				</g>
			</g>
			<g>
				<g>
					<g>
						<g>
							<g>
								<path class="st0" d="M113.58,413.8c0.2,0,0.35,5.58,0.35,12.47c0,6.89-0.16,12.47-0.35,12.47c-0.2,0-0.35-5.58-0.35-12.47
									C113.22,419.39,113.38,413.8,113.58,413.8z"/>
							</g>
						</g>
					</g>
				</g>
			</g>
			<g>
				<g>
					<g>
						<g>
							<g>
								<path class="st0" d="M146.65,412.96c0.2,0,0.35,5.88,0.35,13.13c0,7.25-0.16,13.13-0.35,13.13c-0.2,0-0.35-5.88-0.35-13.13
									C146.29,418.84,146.45,412.96,146.65,412.96z"/>
							</g>
						</g>
					</g>
				</g>
			</g>
			<g>
				<g>
					<g>
						<g>
							<g>
								<path class="st0" d="M142.08,413.32c0.2,0,0.35,5.73,0.35,12.79c0,7.07-0.16,12.79-0.35,12.79s-0.35-5.73-0.35-12.79
									C141.72,419.04,141.88,413.32,142.08,413.32z"/>
							</g>
						</g>
					</g>
				</g>
			</g>
		</g>
	</g>
	<g>
		<g>
			<g>
				<g>
					<g>
						<path class="st2" d="M418.07,356.26c5.32-2.74,11.57-3.1,17.47-2.12c3.17,0.52,6.48,1.47,8.63,3.85
							c2.16,2.38,2.57,6.57,0.09,8.62c-1.47,1.22-3.53,1.4-5.44,1.38c-4.62-0.05-9.74-0.87-13.44,1.91c-2.11,1.59-3.51,4.22-6.02,5
							c-2.46,0.76-5.24-0.69-6.55-2.91c-1.31-2.22-1.35-5-0.74-7.51C412.08,364.48,412.72,359.02,418.07,356.26z"/>
					</g>
				</g>
			</g>
			<g>
				<g>
					<g>
						<path class="st2" d="M405.89,332.75c3.25,4.64,9.57,3.11,12.5,0.27c2.93-2.83,4.17-6.94,5.29-10.86
							c2.57-8.95,5.17-18.33,3.26-27.45c-0.57-2.72-1.59-5.44-3.51-7.46c-1.91-2.02-4.86-3.22-7.55-2.51
							c-3.19,0.84-5.16,3.96-6.6,6.93c-4.21,8.72-6.43,18.39-6.47,28.08C402.81,324.27,403.34,329.01,405.89,332.75"/>
					</g>
				</g>
			</g>
			<g>
				<g>
					<g>
						<path class="st2" d="M396.97,339.41c3.53-4.19,4.2-10.3,2.63-15.54c-1.57-5.25-5.12-9.71-9.21-13.35
							c-4.79-4.27-10.43-7.6-16.49-9.73c-2.38-0.84-4.9-1.5-7.41-1.26c-2.52,0.24-5.05,1.53-6.22,3.76
							c-1.73,3.31-0.07,7.32,1.73,10.6c3.17,5.77,6.79,11.29,10.83,16.49c3.25,4.18,6.96,8.31,11.91,10.2
							c4.95,1.89,10.08,1.67,12.71-1.76"/>
					</g>
				</g>
			</g>
			<g>
				<g>
					<g>
						<g>
							<path class="st0" d="M405.67,402.77c0.06,0,0.16-0.75,0.29-2.11c0.15-1.54,0.34-3.46,0.56-5.76c0.27-2.42,0.62-5.3,1.29-8.44
								c0.67-3.13,1.72-6.52,3.07-9.97c1.4-3.42,3.1-6.53,5.09-9.02c1.98-2.5,4.27-4.31,6.43-5.35c2.15-1.06,4.08-1.5,5.42-1.69
								c1.35-0.14,2.1-0.24,2.1-0.3c0-0.06-0.75-0.07-2.14-0.03c-1.37,0.09-3.38,0.44-5.65,1.47c-2.28,1.01-4.71,2.85-6.79,5.4
								c-2.09,2.54-3.85,5.72-5.27,9.2c-1.37,3.5-2.41,6.93-3.05,10.13c-0.64,3.19-0.93,6.11-1.12,8.55
								c-0.18,2.44-0.25,4.42-0.29,5.79C405.6,402.01,405.61,402.77,405.67,402.77z"/>
						</g>
					</g>
				</g>
			</g>
			<g>
				<g>
					<g>
						<g>
							<path class="st0" d="M406.07,398.34c0.03,0,0.05-0.34,0.06-0.98c0-0.74,0-1.66-0.01-2.8c-0.01-2.43-0.01-5.94,0.12-10.28
								c0.21-8.68,0.96-18.02,2.41-31.2c1.37-12.39,3.2-26.8,5.14-36.17c0.42-2.13,0.83-4.05,1.23-5.73
								c0.38-1.68,0.7-3.13,1.01-4.31c0.27-1.11,0.48-2.01,0.65-2.72c0.14-0.63,0.2-0.96,0.17-0.97c-0.03-0.01-0.15,0.31-0.34,0.92
								c-0.21,0.7-0.48,1.59-0.81,2.68c-0.36,1.16-0.73,2.61-1.15,4.28c-0.44,1.67-0.9,3.59-1.36,5.71
								c-1.92,8.49-3.94,20.36-5.4,33.56c-1.45,13.2-2.1,25.22-2.16,33.92c-0.05,4.35,0.04,7.87,0.15,10.3
								c0.07,1.14,0.13,2.06,0.17,2.8C406,398.01,406.04,398.34,406.07,398.34z"/>
						</g>
					</g>
				</g>
			</g>
			<g>
				<g>
					<g>
						<g>
							<path class="st0" d="M406.13,375.16c0.06,0,0.05-1.04-0.02-2.92c-0.11-1.88-0.37-4.59-0.9-7.92
								c-0.56-3.32-1.34-7.26-2.58-11.54c-0.53-1.96-1.79-6.65-4.83-13.66c-4-9.5-9.44-17.26-14.17-22.07
								c-1.11-1.28-2.35-2.2-3.33-3.1c-0.51-0.43-0.96-0.86-1.42-1.21c-0.46-0.32-0.89-0.62-1.29-0.89
								c-1.56-1.06-2.43-1.63-2.46-1.58c-0.14,0.19,3.49,2.32,8.07,7.2c4.56,4.86,9.85,12.57,13.82,21.99
								c2.21,5.11,3.76,9.66,4.85,13.53c1.27,4.24,2.11,8.14,2.74,11.43c0.6,3.29,0.95,5.98,1.16,7.84
								C405.94,374.13,406.07,375.16,406.13,375.16z"/>
						</g>
					</g>
				</g>
			</g>
		</g>
		<g>
			<g>
				<g>
					<polygon class="st2" points="382.17,412.53 384.49,444.35 425.37,444.35 427.7,412.53 					"/>
				</g>
			</g>
		</g>
		<g>
			<g>
				<g>
					<rect x="378.22" y="399.99" class="st2" width="54.35" height="12.54"/>
				</g>
			</g>
		</g>
		<g>
			<g>
				<g>
					<polygon class="st0" points="378.22,443.13 378.22,446.61 380.78,446.61 431.68,446.61 431.68,443.13 					"/>
				</g>
			</g>
		</g>
		<g>
			<g>
				<g>
					<polygon class="st0" points="383.28,452.34 380.78,446.23 429.73,446.23 426.81,452.34 					"/>
				</g>
			</g>
		</g>
		<g>
			<g>
				<g>
					<g>
						<path class="st3" d="M426.94,422.93c0.01,0.01-0.06,0.11-0.19,0.29c-0.16,0.22-0.36,0.48-0.61,0.81
							c-0.58,0.74-1.38,1.76-2.38,3.05l-0.11,0.14l-0.1-0.14c-1.5-2.07-3.5-4.84-5.85-8.09h0.34c-1.74,2.46-3.68,5.21-5.76,8.16
							l-0.18,0.26l-0.2-0.24c-2.13-2.53-4.43-5.28-6.83-8.13l0.39-0.01c-0.12,0.15-0.25,0.31-0.38,0.47
							c-2.12,2.66-4.17,5.23-6.11,7.66l-0.2,0.26l-0.19-0.27c-2.07-2.93-4.01-5.68-5.76-8.15l0.34,0.02
							c-2.84,3.24-5.25,5.98-7.1,8.09l-0.13,0.14l-0.1-0.16c-0.94-1.57-1.68-2.83-2.22-3.73c-0.23-0.41-0.42-0.73-0.57-0.99
							c-0.13-0.23-0.18-0.35-0.17-0.35c0.01-0.01,0.09,0.1,0.24,0.32c0.17,0.25,0.37,0.57,0.63,0.96c0.57,0.89,1.35,2.12,2.33,3.67
							l-0.22-0.02c1.82-2.13,4.19-4.91,6.98-8.18l0.18-0.21l0.16,0.22c1.77,2.47,3.72,5.2,5.81,8.12l-0.39-0.01
							c1.93-2.43,3.98-5.01,6.09-7.67c0.13-0.16,0.26-0.32,0.38-0.47l0.19-0.24l0.2,0.24c2.39,2.86,4.69,5.61,6.81,8.14l-0.38,0.02
							c2.1-2.93,4.06-5.66,5.82-8.12l0.17-0.24l0.17,0.24c2.3,3.29,4.26,6.09,5.73,8.18l-0.21-0.01c1.04-1.25,1.87-2.25,2.48-2.97
							c0.27-0.31,0.49-0.56,0.66-0.77C426.85,423.01,426.93,422.92,426.94,422.93z"/>
					</g>
				</g>
			</g>
		</g>
		<g>
			<g>
				<g>
					<g>
						<path class="st3" d="M428.27,412.32c0,0.14-10.24,0.25-22.88,0.25c-12.64,0-22.88-0.11-22.88-0.25
							c0-0.14,10.24-0.25,22.88-0.25C418.02,412.07,428.27,412.18,428.27,412.32z"/>
					</g>
				</g>
			</g>
		</g>
	</g>
	<g>
		<g>
			<g>
				<path class="st0" d="M195.21,80.84c0,0.01-0.08-0.02-0.23-0.07c-0.18-0.07-0.4-0.16-0.66-0.26c-0.62-0.26-1.46-0.61-2.52-1.05
					c-2.23-0.95-5.37-2.3-9.24-3.96c-7.82-3.41-18.55-8.08-30.41-13.25c-0.36-0.16-0.72-0.32-1.05-0.46l0.22,0
					c-11.65,4.98-22.15,9.47-29.79,12.74c-3.78,1.59-6.84,2.87-9.02,3.79c-1.03,0.42-1.85,0.76-2.46,1
					c-0.56,0.22-0.86,0.33-0.87,0.32c-0.01-0.02,0.28-0.16,0.83-0.42c0.6-0.27,1.4-0.64,2.42-1.1c2.16-0.95,5.2-2.29,8.95-3.95
					c7.62-3.31,18.1-7.85,29.73-12.89l0.11-0.05l0.11,0.05c0.33,0.15,0.69,0.3,1.05,0.46c11.83,5.22,22.54,9.95,30.34,13.39
					c3.84,1.72,6.96,3.12,9.17,4.12c1.04,0.48,1.87,0.86,2.48,1.15c0.26,0.12,0.47,0.23,0.64,0.31
					C195.14,80.79,195.21,80.83,195.21,80.84z"/>
			</g>
		</g>
		<g>
			<rect x="47.34" y="76.48" class="st0" width="195.29" height="146.23"/>
		</g>
		<g>
			<rect x="54.17" y="83.28" class="st1" width="182.37" height="133.42"/>
		</g>
		<g>
			<g>
				<path class="st0" d="M94.45,141.57c0,0,0.19,22.4,1.33,29.23l28.09-1.33c0,0-2.47-22.02-1.52-27.9H94.45z"/>
			</g>
			<g>
				<g>
					<g>
						<g>
							<path class="st4" d="M108.29,144.73c0,0,0.03-0.01,0.1-0.01c0.08,0,0.18-0.01,0.3-0.01c0.27-0.02,0.66,0,1.17,0.06
								c0.5,0.08,1.12,0.22,1.79,0.53c0.66,0.31,1.35,0.83,1.94,1.54c0.57,0.72,1.1,1.62,1.35,2.71c0.23,1.08,0.11,2.3-0.29,3.47
								c-0.2,0.59-0.47,1.17-0.79,1.73c-0.32,0.57-0.64,1.13-0.9,1.75c-0.53,1.23-0.95,2.58-1.14,3.99l-0.01,0.09l-0.09,0
								c-0.89,0.01-1.82,0.03-2.77,0.04c-1,0.02-1.98,0.03-2.91,0.05l-0.1,0l0-0.1c-0.05-1.41-0.68-2.7-1.35-3.84
								c-0.34-0.58-0.71-1.11-1.05-1.66c-0.34-0.54-0.72-1.05-0.99-1.61c-0.55-1.12-0.65-2.36-0.44-3.42
								c0.2-1.07,0.56-2.04,1.08-2.8c0.53-0.76,1.2-1.29,1.83-1.65c0.64-0.35,1.23-0.55,1.73-0.67c0.49-0.12,0.88-0.17,1.15-0.19
								c0.13-0.01,0.23-0.01,0.3-0.01C108.26,144.73,108.29,144.73,108.29,144.73c0,0-0.03,0.01-0.1,0.01
								c-0.08,0.01-0.18,0.02-0.3,0.03c-0.26,0.03-0.65,0.09-1.13,0.22c-0.48,0.13-1.07,0.33-1.69,0.69
								c-0.62,0.36-1.26,0.88-1.77,1.63c-0.5,0.74-0.85,1.7-1.04,2.75c-0.2,1.04-0.1,2.23,0.44,3.31c0.26,0.54,0.64,1.04,0.98,1.59
								c0.34,0.54,0.72,1.08,1.06,1.66c0.68,1.15,1.33,2.46,1.39,3.94l-0.11-0.1c0.93-0.02,1.91-0.03,2.91-0.05
								c0.95-0.01,1.89-0.03,2.77-0.04l-0.1,0.09c0.19-1.45,0.62-2.8,1.16-4.05c0.27-0.62,0.6-1.21,0.91-1.77
								c0.32-0.56,0.58-1.12,0.78-1.7c0.41-1.15,0.53-2.33,0.31-3.38c-0.23-1.04-0.74-1.94-1.29-2.65c-0.58-0.7-1.24-1.21-1.88-1.53
								c-0.65-0.32-1.25-0.46-1.75-0.55c-0.5-0.07-0.89-0.1-1.16-0.09c-0.12,0-0.22-0.01-0.3-0.01
								C108.33,144.74,108.29,144.74,108.29,144.73z"/>
						</g>
					</g>
					<g>
						<g>
							<path class="st4" d="M109.73,160.34c0,0-0.01-0.03-0.02-0.09c-0.01-0.06-0.02-0.15-0.04-0.26c-0.04-0.23-0.09-0.57-0.15-1
								c-0.13-0.87-0.31-2.13-0.44-3.71c-0.03-0.39-0.06-0.81-0.07-1.24c-0.01-0.43-0.03-0.88-0.01-1.34
								c0.03-0.46,0.1-0.95,0.32-1.41c0.21-0.45,0.57-0.87,1.07-1.07c0.49-0.21,1.12-0.1,1.53,0.29c0.2,0.2,0.33,0.48,0.33,0.77
								c0,0.29-0.11,0.57-0.29,0.8c-0.17,0.24-0.41,0.42-0.68,0.55c-0.26,0.13-0.55,0.21-0.83,0.28c-0.58,0.12-1.17,0.19-1.77,0.21
								c-0.6,0.01-1.2,0-1.78-0.09c-0.29-0.05-0.58-0.12-0.85-0.24c-0.27-0.12-0.51-0.29-0.71-0.5c-0.2-0.21-0.35-0.47-0.41-0.75
								c-0.07-0.28-0.02-0.58,0.1-0.83c0.12-0.25,0.33-0.47,0.59-0.57c0.26-0.11,0.56-0.08,0.8,0.04c0.24,0.11,0.45,0.29,0.6,0.51
								c0.15,0.21,0.24,0.46,0.3,0.7c0.12,0.49,0.11,0.97,0.14,1.43c0.05,0.92,0.09,1.79,0.13,2.57c0.08,1.57,0.14,2.84,0.19,3.73
								c0.02,0.44,0.04,0.78,0.05,1.01c0,0.11,0.01,0.2,0.01,0.26c0,0.06,0,0.09,0,0.09s0-0.03-0.01-0.09
								c0-0.06-0.01-0.15-0.02-0.26c-0.01-0.24-0.04-0.58-0.06-1.01c-0.05-0.88-0.12-2.15-0.22-3.72c-0.04-0.79-0.09-1.65-0.14-2.57
								c-0.03-0.46-0.03-0.94-0.14-1.42c-0.06-0.24-0.15-0.47-0.29-0.67c-0.14-0.2-0.34-0.37-0.57-0.48
								c-0.23-0.11-0.5-0.13-0.74-0.03c-0.24,0.09-0.43,0.29-0.54,0.53c-0.11,0.24-0.15,0.51-0.09,0.78
								c0.06,0.26,0.2,0.51,0.39,0.71c0.38,0.41,0.94,0.63,1.5,0.72c0.57,0.09,1.17,0.1,1.77,0.08c0.6-0.02,1.19-0.08,1.76-0.2
								c0.28-0.06,0.56-0.14,0.81-0.27c0.25-0.12,0.48-0.3,0.65-0.52c0.17-0.22,0.27-0.49,0.27-0.75c0.01-0.27-0.12-0.52-0.3-0.71
								c-0.38-0.37-0.97-0.48-1.44-0.28c-0.47,0.19-0.82,0.6-1.03,1.03c-0.21,0.44-0.29,0.92-0.31,1.38c-0.03,0.46-0.01,0.91,0,1.34
								c0.01,0.43,0.04,0.84,0.07,1.23c0.12,1.57,0.3,2.83,0.41,3.71c0.06,0.43,0.11,0.77,0.14,1.01c0.01,0.11,0.03,0.2,0.03,0.26
								C109.73,160.31,109.73,160.34,109.73,160.34z"/>
						</g>
					</g>
					<g>
						<g>
							<path class="st4" d="M106.03,160.49c0.01,0.01,0.04,0.35,0.07,0.93c0.03,0.68,0.08,1.49,0.13,2.43l-0.02-0.06
								c0.56,0.65,1.2,1.39,1.89,2.18l-0.1-0.04c0.69-0.04,1.42-0.08,2.19-0.12l-0.09,0.05c0.35-0.43,0.72-0.87,1.09-1.33
								c0.18-0.22,0.37-0.45,0.55-0.66l-0.03,0.09c-0.03-1.28-0.06-2.49-0.08-3.6l0.12,0.11c-1.59,0.02-2.97,0.03-4.08,0.05
								c-0.44,0-0.83,0-1.18,0C106.2,160.5,106.04,160.49,106.03,160.49c-0.01-0.01,0.13-0.02,0.39-0.04
								c0.34-0.02,0.72-0.04,1.15-0.06c1.13-0.04,2.54-0.1,4.16-0.16l0.12,0l0,0.12c0.03,1.11,0.07,2.32,0.11,3.6l0,0.05l-0.03,0.04
								c-0.18,0.22-0.36,0.44-0.55,0.67c-0.37,0.45-0.74,0.9-1.09,1.33l-0.04,0.04l-0.06,0c-0.76,0.04-1.5,0.07-2.19,0.11l-0.06,0
								l-0.04-0.04c-0.68-0.8-1.3-1.55-1.86-2.21l-0.02-0.03l0-0.03c-0.01-0.97-0.02-1.8-0.02-2.5
								C106.01,160.78,106.02,160.47,106.03,160.49z"/>
						</g>
					</g>
					<g>
						<g>
							<path class="st4" d="M111.68,163.65c0,0.01-0.08-0.03-0.21-0.09c-0.13-0.06-0.32-0.14-0.57-0.22
								c-0.48-0.17-1.19-0.33-1.97-0.3c-0.79,0.02-1.48,0.22-1.95,0.42c-0.24,0.1-0.43,0.19-0.55,0.26c-0.13,0.07-0.2,0.11-0.2,0.1
								c0,0,0.06-0.05,0.18-0.13c0.12-0.08,0.31-0.18,0.55-0.29c0.47-0.21,1.18-0.43,1.97-0.45c0.8-0.02,1.51,0.14,2,0.33
								c0.24,0.09,0.43,0.18,0.56,0.25C111.61,163.6,111.68,163.65,111.68,163.65z"/>
						</g>
					</g>
					<g>
						<g>
							<path class="st4" d="M111.67,162.77c0,0.01-0.08-0.03-0.21-0.09s-0.32-0.14-0.57-0.22c-0.48-0.17-1.19-0.32-1.97-0.3
								c-0.79,0.02-1.48,0.22-1.95,0.42c-0.24,0.1-0.43,0.19-0.55,0.26c-0.13,0.07-0.2,0.11-0.2,0.1c0,0,0.06-0.05,0.18-0.13
								c0.12-0.08,0.31-0.18,0.55-0.29c0.47-0.21,1.18-0.43,1.97-0.45c0.8-0.02,1.51,0.14,2,0.33c0.24,0.09,0.43,0.18,0.56,0.25
								C111.61,162.73,111.68,162.77,111.67,162.77z"/>
						</g>
					</g>
					<g>
						<g>
							<path class="st4" d="M111.62,161.94c0,0.01-0.08-0.03-0.21-0.09c-0.13-0.06-0.32-0.14-0.57-0.22
								c-0.48-0.17-1.19-0.33-1.97-0.3c-0.79,0.02-1.48,0.22-1.95,0.42c-0.24,0.1-0.43,0.19-0.55,0.26c-0.13,0.07-0.2,0.11-0.2,0.1
								c0,0,0.06-0.05,0.18-0.13c0.12-0.08,0.31-0.18,0.55-0.29c0.47-0.21,1.18-0.43,1.97-0.45c0.8-0.02,1.51,0.14,2,0.33
								c0.24,0.09,0.43,0.18,0.56,0.25C111.56,161.89,111.63,161.94,111.62,161.94z"/>
						</g>
					</g>
				</g>
			</g>
		</g>
		<g>
			<g>
				<g>
					<path class="st2" d="M63.17,104.95c0,0,0.19,22.4,1.33,29.23l28.09-1.33c0,0-2.47-22.02-1.52-27.9H63.17z"/>
				</g>
				<g>
					<g>
						<path class="st4" d="M86.84,114.36c0.01,0.15-4.2,0.53-9.41,0.84c-5.21,0.31-9.43,0.44-9.44,0.29
							c-0.01-0.15,4.2-0.53,9.41-0.84C82.6,114.34,86.83,114.21,86.84,114.36z"/>
					</g>
				</g>
				<g>
					<g>
						<path class="st4" d="M86.84,119.1c0.01,0.15-4.2,0.53-9.41,0.84c-5.21,0.31-9.43,0.44-9.44,0.29
							c-0.01-0.15,4.2-0.53,9.41-0.84C82.61,119.08,86.83,118.95,86.84,119.1z"/>
					</g>
				</g>
				<g>
					<g>
						<path class="st4" d="M82.07,123.76c0.01,0.15-2.39,0.42-5.35,0.6c-2.97,0.18-5.38,0.2-5.39,0.05
							c-0.01-0.15,2.39-0.42,5.35-0.6C79.65,123.63,82.06,123.61,82.07,123.76z"/>
					</g>
				</g>
			</g>
		</g>
		<g>
			<g>
				<g>
					<path class="st2" d="M61.84,170.85c0,0,0.19,22.4,1.33,29.23l28.09-1.33c0,0-2.47-22.02-1.52-27.9H61.84z"/>
				</g>
				<g>
					<g>
						<path class="st4" d="M85.51,180.25c0.01,0.15-4.2,0.53-9.41,0.84c-5.21,0.31-9.43,0.44-9.44,0.29
							c-0.01-0.15,4.2-0.53,9.41-0.84C81.27,180.23,85.5,180.1,85.51,180.25z"/>
					</g>
				</g>
				<g>
					<g>
						<path class="st4" d="M85.51,185c0.01,0.15-4.2,0.53-9.41,0.84c-5.21,0.31-9.43,0.44-9.44,0.29c-0.01-0.15,4.2-0.53,9.41-0.84
							C81.28,184.98,85.5,184.85,85.51,185z"/>
					</g>
				</g>
				<g>
					<g>
						<path class="st4" d="M80.74,189.66c0.01,0.15-2.39,0.42-5.35,0.6c-2.97,0.18-5.38,0.2-5.39,0.05
							c-0.01-0.15,2.39-0.42,5.35-0.6C78.32,189.53,80.73,189.5,80.74,189.66z"/>
					</g>
				</g>
			</g>
		</g>
		<g>
			<g>
				<polygon class="st2" points="138.61,110.89 141.39,175.49 222.03,176.46 218.41,111.74 				"/>
			</g>
			<g>
				<g>
					<g>
						<rect x="137.67" y="110.43" class="st3" width="80.11" height="60.49"/>
					</g>
					<g>
						<g>
							<path class="st0" d="M217.78,170.92c0,0-0.02-0.39-0.02-1.12c-0.01-0.75-0.01-1.83-0.03-3.23
								c-0.01-2.84-0.03-6.97-0.06-12.24c-0.03-10.55-0.07-25.64-0.12-43.9l0.23,0.23c-22.65,0.01-50.29,0.03-80.1,0.05h-0.01
								l0.28-0.28c-0.01,21.75-0.02,42.35-0.03,60.49l-0.25-0.25c23.7,0.05,43.7,0.09,57.78,0.12c7.04,0.03,12.61,0.05,16.43,0.07
								c1.9,0.01,3.36,0.02,4.37,0.03c0.49,0.01,0.86,0.01,1.13,0.01C217.64,170.91,217.78,170.92,217.78,170.92
								s-0.12,0.01-0.36,0.01c-0.26,0-0.63,0.01-1.1,0.01c-1,0.01-2.44,0.02-4.32,0.03c-3.81,0.02-9.36,0.04-16.38,0.07
								c-14.13,0.03-34.18,0.07-57.94,0.12l-0.25,0l0-0.25c-0.01-18.14-0.02-38.73-0.03-60.49l0-0.28h0.28h0.01
								c29.81,0.02,57.45,0.04,80.1,0.05l0.23,0l0,0.23c-0.05,18.32-0.09,33.46-0.12,44.04c-0.02,5.25-0.04,9.36-0.06,12.19
								c-0.01,1.38-0.02,2.45-0.03,3.18C217.8,170.56,217.78,170.92,217.78,170.92z"/>
						</g>
					</g>
				</g>
				<g>
					<g>
						<rect x="147.34" y="123.24" class="st3" width="32.47" height="40.87"/>
					</g>
					<g>
						<g>
							<path class="st0" d="M179.81,164.11c0,0-0.01-0.07-0.01-0.21c0-0.15-0.01-0.34-0.01-0.58c-0.01-0.54-0.02-1.28-0.03-2.23
								c-0.02-1.97-0.04-4.81-0.07-8.38c-0.03-7.19-0.07-17.37-0.12-29.46l0.25,0.25c-9.68,0.01-20.75,0.02-32.47,0.03
								c-0.07,0.06,0.52-0.52,0.27-0.27v0.01v0.02v0.04v0.09v0.18v0.35l0,0.71l0,1.41c0,0.94,0,1.87,0,2.8c0,1.86,0,3.69,0,5.51
								c0,3.63-0.01,7.17-0.01,10.6c-0.01,6.86-0.02,13.3-0.03,19.14l-0.23-0.23c9.74,0.05,17.83,0.09,23.51,0.12
								c2.82,0.03,5.04,0.05,6.6,0.06c0.74,0.01,1.32,0.02,1.75,0.03C179.59,164.09,179.81,164.11,179.81,164.11
								c0.01,0.01-0.18,0.02-0.57,0.03c-0.42,0.01-0.98,0.02-1.71,0.03c-1.54,0.01-3.75,0.03-6.55,0.06
								c-5.72,0.03-13.85,0.07-23.66,0.12l-0.23,0l0-0.23c-0.01-5.84-0.02-12.27-0.03-19.14c0-3.43-0.01-6.98-0.01-10.6
								c0-1.81,0-3.65,0-5.51c0-0.93,0-1.86,0-2.8l0-1.41l0-0.71v-0.35v-0.18v-0.09v-0.04v-0.02v-0.01
								c-0.25,0.24,0.33-0.34,0.28-0.28c11.72,0.01,22.79,0.02,32.47,0.03l0.25,0l0,0.25c-0.05,12.15-0.09,22.39-0.12,29.62
								c-0.03,3.55-0.05,6.37-0.07,8.33c-0.01,0.93-0.02,1.66-0.03,2.19c-0.01,0.23-0.01,0.41-0.01,0.55
								C179.82,164.05,179.81,164.11,179.81,164.11z"/>
						</g>
					</g>
				</g>
				<g>
					<g>
						<rect x="148.58" y="113.89" class="st3" width="62.23" height="5.89"/>
					</g>
					<g>
						<g>
							<path class="st0" d="M210.81,119.78c-0.01-0.01-0.01-0.14-0.02-0.4c-0.01-0.29-0.02-0.66-0.03-1.14
								c-0.01-1.02-0.04-2.48-0.06-4.34l0.11,0.11c-10.5,0.1-34.42,0.16-62.23,0.16h0c0.55-0.55,0.15-0.15,0.28-0.27v0v0.01v0.01
								v0.02v0.05v0.09v0.19v0.38l0,0.75c0,0.5,0,1,0,1.49c0,0.99,0,1.95,0,2.89l-0.27-0.27c17.4,0.05,32.91,0.09,44.11,0.12
								c5.58,0.03,10.09,0.06,13.24,0.08c1.54,0.02,2.74,0.03,3.6,0.04c0.39,0.01,0.7,0.01,0.94,0.02
								C210.69,119.77,210.81,119.77,210.81,119.78c0.01,0.01-0.09,0.01-0.3,0.02c-0.23,0-0.53,0.01-0.91,0.02
								c-0.84,0.01-2.03,0.02-3.54,0.04c-3.13,0.02-7.62,0.05-13.18,0.08c-11.25,0.03-26.83,0.07-44.31,0.12l-0.27,0l0-0.28
								c0-0.94,0-1.91,0-2.89c0-0.49,0-0.99,0-1.49l0-0.75v-0.38v-0.19v-0.09v-0.05v-0.02v-0.01v-0.01v0
								c0.12-0.12-0.28,0.27,0.28-0.28h0c27.81,0,51.74,0.07,62.23,0.16l0.11,0l0,0.11c-0.03,1.89-0.05,3.37-0.06,4.41
								c-0.01,0.47-0.02,0.84-0.03,1.12C210.83,119.66,210.82,119.79,210.81,119.78z"/>
						</g>
					</g>
				</g>
				<g>
					<g>
						<rect x="183.78" y="123.24" class="st3" width="27.03" height="24.63"/>
					</g>
					<g>
						<g>
							<path class="st0" d="M210.81,147.87c-0.01-0.01-0.02-0.17-0.03-0.48c-0.01-0.34-0.02-0.78-0.03-1.34
								c-0.01-1.2-0.04-2.89-0.06-5.02c-0.03-4.33-0.07-10.45-0.12-17.8l0.23,0.23c-7.81,0.01-17.09,0.03-27.03,0.04
								c-0.06,0.06,0.52-0.52,0.27-0.27v0.01v0.01v0.03v0.05v0.11v0.21v0.42l0,0.84c0,0.56,0,1.11,0,1.66c0,1.1,0,2.2,0,3.28
								c0,2.17,0,4.29-0.01,6.35c-0.01,4.13-0.02,8.05-0.02,11.66l-0.24-0.24c8.02,0.05,14.73,0.09,19.5,0.12
								c2.34,0.03,4.21,0.05,5.53,0.06c0.61,0.01,1.1,0.02,1.48,0.03C210.63,147.85,210.8,147.86,210.81,147.87
								c0.01,0.01-0.15,0.02-0.47,0.03c-0.36,0.01-0.83,0.02-1.43,0.03c-1.31,0.02-3.15,0.04-5.48,0.06
								c-4.8,0.03-11.57,0.07-19.65,0.12l-0.24,0l0-0.24c-0.01-3.61-0.02-7.53-0.02-11.66c0-2.07,0-4.19-0.01-6.35
								c0-1.08,0-2.18,0-3.28c0-0.55,0-1.11,0-1.66l0-0.84v-0.42v-0.21v-0.11v-0.05v-0.03v-0.01v-0.01
								c-0.25,0.24,0.33-0.34,0.28-0.28c9.94,0.01,19.22,0.03,27.03,0.04l0.24,0l0,0.23c-0.05,7.41-0.09,13.58-0.12,17.95
								c-0.03,2.11-0.05,3.78-0.06,4.97c-0.01,0.54-0.02,0.96-0.03,1.29C210.83,147.74,210.82,147.88,210.81,147.87z"/>
						</g>
					</g>
				</g>
				<g>
					<g>
						<rect x="183.78" y="151.73" class="st3" width="27.03" height="12.38"/>
					</g>
					<g>
						<g>
							<path class="st0" d="M210.81,164.11c-0.01-0.01-0.03-0.32-0.04-0.9c-0.01-0.62-0.03-1.45-0.05-2.49
								c-0.03-2.18-0.06-5.24-0.11-8.99l0.2,0.2c-7.05,0.02-16.56,0.05-27.03,0.08c-0.25,0.25,0.33-0.34,0.27-0.27v0v0.01v0.01v0.03
								v0.05v0.1v0.2l0,0.41l0,0.81c0,0.54,0,1.07,0,1.61c0,1.06,0,2.12,0,3.15c0,2.07-0.01,4.08-0.01,6l-0.26-0.26
								c7.8,0.05,14.5,0.09,19.33,0.12c2.36,0.03,4.26,0.05,5.63,0.07c0.62,0.01,1.13,0.02,1.52,0.03
								C210.62,164.09,210.8,164.1,210.81,164.11c0.01,0.01-0.16,0.02-0.48,0.03c-0.38,0.01-0.87,0.02-1.47,0.03
								c-1.36,0.02-3.24,0.04-5.57,0.07c-4.87,0.03-11.64,0.07-19.5,0.12l-0.26,0l0-0.26c0-1.92-0.01-3.93-0.01-6
								c0-1.04,0-2.09,0-3.15c0-0.53,0-1.07,0-1.61l0-0.81l0-0.41v-0.2v-0.1v-0.05v-0.03v-0.01v-0.01v0
								c-0.06,0.06,0.52-0.52,0.28-0.28c10.47,0.03,19.98,0.06,27.03,0.08l0.2,0l0,0.2c-0.04,3.8-0.08,6.9-0.11,9.12
								c-0.02,1.02-0.04,1.83-0.05,2.44C210.84,163.84,210.83,164.12,210.81,164.11z"/>
						</g>
					</g>
				</g>
				<g>
					<g>
						<path class="st4" d="M179.01,123.31c-10.05,13.89-21.62,26.91-31.67,40.8"/>
					</g>
					<g>
						<g>
							<path class="st0" d="M147.34,164.11c-0.02-0.01,0.08-0.17,0.27-0.46c0.23-0.34,0.51-0.75,0.85-1.24
								c0.74-1.08,1.85-2.61,3.25-4.48c2.79-3.75,6.78-8.83,11.25-14.39c4.47-5.56,8.51-10.59,11.38-14.28
								c1.39-1.8,2.54-3.27,3.39-4.37c0.37-0.47,0.68-0.86,0.93-1.18c0.22-0.27,0.34-0.4,0.36-0.39c0.02,0.01-0.08,0.17-0.27,0.46
								c-0.23,0.34-0.51,0.75-0.85,1.24c-0.74,1.08-1.85,2.61-3.25,4.48c-2.79,3.75-6.78,8.83-11.26,14.39
								c-4.47,5.55-8.51,10.59-11.37,14.28c-1.39,1.8-2.54,3.27-3.39,4.37c-0.37,0.47-0.68,0.86-0.93,1.18
								C147.47,163.99,147.35,164.12,147.34,164.11z"/>
						</g>
					</g>
				</g>
				<g>
					<g>
						<line class="st4" x1="147.34" y1="123.24" x2="179.81" y2="164.11"/>
					</g>
					<g>
						<g>
							<path class="st0" d="M179.81,164.11c-0.12,0.09-7.49-8.98-16.45-20.26c-8.97-11.29-16.14-20.51-16.02-20.61
								c0.12-0.09,7.48,8.98,16.45,20.26C172.75,154.79,179.93,164.02,179.81,164.11z"/>
						</g>
					</g>
				</g>
			</g>
			<g>
				<path class="st0" d="M141.39,123.33c0,2.81-2.27,5.08-5.08,5.08c-2.81,0-5.08-2.27-5.08-5.08c0-2.81,2.27-5.08,5.08-5.08
					C139.11,118.25,141.39,120.52,141.39,123.33z"/>
			</g>
			<g>
				<path class="st0" d="M224.48,111c0,2.81-2.27,5.08-5.08,5.08c-2.81,0-5.08-2.27-5.08-5.08c0-2.81,2.27-5.08,5.08-5.08
					C222.2,105.92,224.48,108.19,224.48,111z"/>
			</g>
		</g>
	</g>
	<g>
		<g>
			<g>
				<g>
					<g>
						<g>
							<rect x="364.66" y="146.38" class="st0" width="58.54" height="84.86"/>
						</g>
					</g>
				</g>
			</g>
		</g>
		<g>
			<g>
				<g>
					<g>
						<g>
							<rect x="361.73" y="146.38" class="st3" width="58.54" height="84.86"/>
						</g>
					</g>
				</g>
			</g>
		</g>
		<g>
			<g>
				<g>
					<g>
						<g>
							<g>
								<rect x="369" y="155.57" class="st4" width="44" height="66.48"/>
							</g>
						</g>
					</g>
				</g>
			</g>
			<g>
				<g>
					<g>
						<g>
							<g>
								<g>
									<path class="st0" d="M413,222.05c0,0-0.01-0.11-0.01-0.33c0-0.22,0-0.53-0.01-0.94c0-0.84-0.01-2.06-0.02-3.65
										c-0.01-3.19-0.02-7.83-0.04-13.69c-0.02-11.72-0.04-28.32-0.07-47.87l0.15,0.15c-13.44,0-28.34,0.01-43.99,0.01H369
										l0.16-0.16c-0.01,25.08-0.02,48.2-0.03,66.48l-0.13-0.13c13.4,0.03,24.38,0.05,32.02,0.07c3.82,0.01,6.81,0.02,8.85,0.03
										c1.01,0.01,1.79,0.01,2.32,0.01C412.72,222.04,413,222.05,413,222.05s-0.26,0.01-0.78,0.01c-0.53,0-1.3,0.01-2.3,0.01
										c-2.03,0.01-5.01,0.02-8.82,0.03c-7.66,0.02-18.67,0.04-32.1,0.07l-0.13,0v-0.13c-0.01-18.28-0.02-41.4-0.03-66.48l0-0.16
										H369H369c15.65,0,30.55,0.01,43.99,0.01h0.15l0,0.15c-0.03,19.59-0.05,36.22-0.07,47.96c-0.02,5.85-0.03,10.48-0.04,13.66
										c-0.01,1.57-0.01,2.79-0.02,3.62c0,0.4-0.01,0.71-0.01,0.93C413,221.95,413,222.05,413,222.05z"/>
								</g>
							</g>
						</g>
					</g>
				</g>
			</g>
		</g>
		<g>
			<g>
				<g>
					<g>
						<g>
							<g>
								<path class="st5" d="M410.96,156.02"/>
							</g>
						</g>
					</g>
				</g>
			</g>
		</g>
		<g>
			<g>
				<g>
					<g>
						<g>
							<g>
								<path class="st0" d="M420.43,146.38c0.03,0.03-0.36,0.61-1.04,1.52c-0.68,0.91-1.65,2.15-2.75,3.48
									c-1.1,1.34-2.13,2.52-2.89,3.36c-0.76,0.84-1.26,1.34-1.29,1.31c-0.03-0.03,0.4-0.58,1.12-1.46
									c0.78-0.95,1.75-2.12,2.82-3.42c1.07-1.3,2.03-2.47,2.82-3.42C419.94,146.89,420.4,146.35,420.43,146.38z"/>
							</g>
						</g>
					</g>
				</g>
			</g>
		</g>
		<g>
			<g>
				<g>
					<g>
						<g>
							<g>
								<path class="st4" d="M413.22,221.83c2.19,3.47,4.76,6.7,7.67,9.6"/>
							</g>
						</g>
					</g>
				</g>
			</g>
			<g>
				<g>
					<g>
						<g>
							<g>
								<g>
									<path class="st0" d="M420.89,231.43c-0.03,0.03-0.55-0.42-1.34-1.22c-0.79-0.79-1.83-1.93-2.89-3.26
										c-1.06-1.33-1.95-2.6-2.55-3.54c-0.6-0.94-0.93-1.55-0.89-1.57c0.04-0.02,0.43,0.54,1.08,1.45
										c0.65,0.91,1.55,2.14,2.61,3.47c1.06,1.32,2.07,2.48,2.81,3.31C420.46,230.89,420.93,231.4,420.89,231.43z"/>
								</g>
							</g>
						</g>
					</g>
				</g>
			</g>
		</g>
		<g>
			<g>
				<g>
					<g>
						<g>
							<g>
								<path class="st4" d="M361.72,231.17c2.56-3.15,5.11-6.31,7.67-9.46"/>
							</g>
						</g>
					</g>
				</g>
			</g>
			<g>
				<g>
					<g>
						<g>
							<g>
								<g>
									<path class="st0" d="M369.39,221.71c0.07,0.06-1.59,2.22-3.71,4.83c-2.12,2.61-3.89,4.69-3.96,4.63
										c-0.07-0.06,1.59-2.22,3.71-4.83C367.55,223.73,369.32,221.65,369.39,221.71z"/>
								</g>
							</g>
						</g>
					</g>
				</g>
			</g>
		</g>
		<g>
			<g>
				<g>
					<g>
						<g>
							<g>
								<path class="st0" d="M361.73,146.38c0.07-0.05,1.74,1.94,3.72,4.45c1.99,2.51,3.54,4.59,3.47,4.65
									c-0.07,0.05-1.74-1.94-3.72-4.45C363.21,148.52,361.66,146.44,361.73,146.38z"/>
							</g>
						</g>
					</g>
				</g>
			</g>
		</g>
		<g>
			<g>
				<g>
					<g>
						<g>
							<rect x="384.56" y="169.07" class="st0" width="14.73" height="41.83"/>
						</g>
					</g>
				</g>
			</g>
		</g>
	</g>
	<g>
		<g>
			<g>
				<g>
					
						<rect x="401.44" y="56.26" transform="matrix(1 -5.357791e-03 5.357791e-03 1 -0.4073 2.1744)" class="st0" width="8.38" height="41.7"/>
				</g>
			</g>
		</g>
		<g>
			<g>
				<g>
					<g>
						
							<rect x="328.79" y="56.4" transform="matrix(1 -5.354392e-03 5.354392e-03 1 -0.3588 1.8195)" class="st2" width="21.7" height="23.02"/>
					</g>
				</g>
			</g>
			<g>
				<g>
					<g>
						
							<rect x="350.38" y="56.29" transform="matrix(1 -5.354414e-03 5.354414e-03 1 -0.3578 1.9352)" class="st3" width="21.7" height="23.02"/>
					</g>
				</g>
			</g>
			<g>
				<g>
					<g>
						<g>
							<path class="st0" d="M328.76,62.82c14.42,0.12,28.88,0.04,43.3-0.2c0.3,0,0.29-0.46,0-0.46c-14.42-0.08-28.88-0.01-43.3,0.26
								C328.5,62.43,328.5,62.81,328.76,62.82L328.76,62.82z"/>
						</g>
					</g>
				</g>
			</g>
		</g>
		<g>
			<g>
				<g>
					<g>
						
							<rect x="315.24" y="79.09" transform="matrix(1 -5.359059e-03 5.359059e-03 1 -0.4693 1.7963)" class="st2" width="39.43" height="18.76"/>
					</g>
				</g>
			</g>
			<g>
				<g>
					<g>
						
							<rect x="354.49" y="78.88" transform="matrix(1 -5.356509e-03 5.356509e-03 1 -0.4674 2.0057)" class="st3" width="39.43" height="18.76"/>
					</g>
				</g>
			</g>
			<g>
				<g>
					<g>
						<g>
							<path class="st0" d="M315.22,84.41c26.19,0.3,52.48,0.03,78.67-0.39c0.3,0,0.29-0.46,0-0.46
								c-26.19-0.14-52.48-0.12-78.67,0.45C314.97,84.02,314.97,84.41,315.22,84.41L315.22,84.41z"/>
						</g>
					</g>
				</g>
			</g>
		</g>
		<g>
			<g>
				<g>
					<rect x="300.48" y="97.95" class="st0" width="152.76" height="6.72"/>
				</g>
			</g>
			<g>
				<g>
					<rect x="325.49" y="101.18" class="st0" width="6.2" height="22.93"/>
				</g>
			</g>
			<g>
				<g>
					<rect x="418.06" y="101.18" class="st0" width="6.2" height="22.93"/>
				</g>
			</g>
		</g>
		<g>
			<g>
				<g>
					
						<rect x="409.66" y="40.71" transform="matrix(1 -5.357783e-03 5.357783e-03 1 -0.3658 2.2183)" class="st2" width="8.38" height="57.35"/>
				</g>
			</g>
		</g>
		<g>
			<g>
				<g>
					<g>
						
							<rect x="418.08" y="51.4" transform="matrix(1 -5.360371e-03 5.360371e-03 1 -0.394 2.277)" class="st3" width="13.02" height="46.48"/>
					</g>
				</g>
			</g>
			<g>
				<g>
					<g>
						<path class="st0" d="M430.89,60.31c0,0.12-2.92,0.23-6.51,0.23c-3.6,0-6.51-0.1-6.51-0.23s2.91-0.23,6.51-0.23
							C427.97,60.09,430.89,60.19,430.89,60.31z"/>
					</g>
				</g>
			</g>
			<g>
				<g>
					<g>
						<path class="st0" d="M430.89,58.36c0,0.12-2.92,0.23-6.51,0.23c-3.6,0-6.51-0.1-6.51-0.23c0-0.12,2.91-0.23,6.51-0.23
							C427.97,58.14,430.89,58.24,430.89,58.36z"/>
					</g>
				</g>
			</g>
			<g>
				<g>
					<g>
						<path class="st0" d="M430.89,90.84c0,0.12-2.92,0.23-6.51,0.23c-3.6,0-6.51-0.1-6.51-0.23c0-0.12,2.91-0.23,6.51-0.23
							C427.97,90.62,430.89,90.72,430.89,90.84z"/>
					</g>
				</g>
			</g>
			<g>
				<g>
					<g>
						<path class="st0" d="M430.89,88.89c0,0.12-2.92,0.23-6.51,0.23c-3.6,0-6.51-0.1-6.51-0.23c0-0.12,2.91-0.23,6.51-0.23
							C427.97,88.67,430.89,88.77,430.89,88.89z"/>
					</g>
				</g>
			</g>
			<g>
				<g>
					<g>
						<path class="st0" d="M424.59,84.63c-0.12,0-0.23-4.69-0.23-10.47c0-5.78,0.1-10.47,0.23-10.47c0.12,0,0.23,4.69,0.23,10.47
							C424.81,79.94,424.71,84.63,424.59,84.63z"/>
					</g>
				</g>
			</g>
		</g>
		<g>
			<g>
				<g>
					<rect x="431.03" y="62.77" class="st2" width="14.17" height="35.08"/>
				</g>
			</g>
			<g>
				<g>
					<path class="st1" d="M438.52,88.76c-1.86,0-3.17-1.33-3.17-3.16c0-0.99,0.38-1.85,1.15-2.37l0.32,0.44
						c-0.63,0.45-0.93,1.15-0.93,1.92c0,1.47,1.05,2.55,2.63,2.55s2.63-1.08,2.63-2.55c0-0.78-0.3-1.47-0.93-1.92l0.32-0.44
						c0.75,0.51,1.15,1.38,1.15,2.37C441.68,87.43,440.37,88.76,438.52,88.76z"/>
				</g>
				<g>
					<path class="st1" d="M440.88,82.36l-0.48-0.28c0.41-0.48,0.75-1.33,0.75-2.25c0-1.32-0.47-1.84-1.17-1.84
						c-1.82,0-0.48,4.14-2.93,4.14c-0.94,0-1.71-0.79-1.71-2.37c0-0.79,0.24-1.65,0.61-2.14l0.48,0.28
						c-0.38,0.53-0.56,1.21-0.56,1.88c0,1.22,0.5,1.76,1.17,1.76c1.88,0,0.55-4.14,2.93-4.14c1.02,0,1.71,0.87,1.71,2.46
						C441.68,80.89,441.34,81.87,440.88,82.36z"/>
				</g>
				<g>
					<path class="st1" d="M440.88,76.65l-0.48-0.27c0.41-0.48,0.75-1.33,0.75-2.25c0-1.31-0.47-1.84-1.17-1.84
						c-1.82,0-0.48,4.14-2.93,4.14c-0.94,0-1.71-0.79-1.71-2.37c0-0.79,0.24-1.65,0.61-2.14l0.48,0.27
						c-0.38,0.53-0.56,1.21-0.56,1.88c0,1.22,0.5,1.76,1.17,1.76c1.88,0,0.55-4.14,2.93-4.14c1.02,0,1.71,0.87,1.71,2.46
						C441.68,75.18,441.34,76.16,440.88,76.65z"/>
				</g>
			</g>
		</g>
		<g>
			<g>
				<circle class="st0" cx="413.57" cy="50.48" r="2.41"/>
			</g>
		</g>
		<g>
			<g>
				<rect x="412.82" y="57.1" class="st0" width="1.49" height="34.12"/>
			</g>
		</g>
	</g>
</g>
<g id="Background_Simple" class="st6">
	<path class="st7" d="M411.38,133.25l-2.15-3.49c-17.36-28.25-48.4-45.66-81.54-44.54c-5.26,0.18-10.5,0.8-15.66,1.89
		c-30.95,6.54-57.89,29.66-69.05,59.26c-6.57,17.41-8.4,37.45-20.86,51.27c-16.22,17.98-43.74,18.55-67.95,17.8
		c-24.2-0.75-51.75-0.11-67.89,17.95c-10.11,11.31-13.32,27.39-12.5,42.53c2.16,40.09,30.45,75.94,66.43,93.76
		s78.34,19.41,117.72,11.58c55.16-10.98,107.62-41.14,139.16-87.71C428.63,246.98,436.61,183.52,411.38,133.25z"/>
</g>
<g id="Floor">
	<g>
		<g>
			<path class="st8" d="M470.81,454.02c0,0.14-96.59,0.26-215.71,0.26c-119.16,0-215.73-0.12-215.73-0.26
				c0-0.14,96.57-0.26,215.73-0.26C374.22,453.76,470.81,453.88,470.81,454.02z"/>
		</g>
	</g>
</g>
<g id="Hourglass">
	<g>
		<g>
			<g>
				<g>
					<path class="st1" d="M156.18,110.24c-16.05,25.24-15,60.24,2.54,84.47c11.69,16.16,29.22,26.98,43.14,41.26
						c13.92,14.27,24.5,35.31,17.15,53.85c-7.48,18.87-29.39,26.55-45.8,38.5c-17.87,13.02-30.42,33.13-34.27,54.9
						c-3.85,21.77,1.06,44.97,13.39,63.32h170.42c0,0,29.94-57.05-8.55-100.53c-38.49-43.48-59.16-44.19-57.74-72.7
						c1.43-28.51,21.38-37.78,32.79-48.47s67-35.64,34.21-114.6H156.18z"/>
				</g>
				<g>
					<g>
						<path class="st8" d="M156.18,110.24c0,0,0.99-0.02,2.93-0.02c1.95-0.01,4.84-0.01,8.64-0.02c7.61-0.01,18.82-0.03,33.26-0.05
							c28.91-0.02,70.74-0.05,122.46-0.09h0.13l0.04,0.11c2.33,5.91,4.68,12,6.35,18.45c1.72,6.42,3.12,13.12,3.62,20.05
							c0.52,6.92,0.3,14.07-1.08,21.17c-1.42,7.08-3.96,14.09-7.7,20.58c-1.86,3.25-4.05,6.34-6.42,9.31
							c-2.39,2.96-5.04,5.74-7.85,8.4c-2.81,2.65-5.8,5.15-8.91,7.54c-3.1,2.4-6.34,4.67-9.5,7.06c-1.58,1.19-3.03,2.53-4.54,3.87
							c-1.52,1.32-3.08,2.59-4.65,3.84c-3.15,2.52-6.33,5.04-9.33,7.79c-6.06,5.42-11.18,12.19-14,20.08
							c-1.37,3.93-2.35,8.05-2.67,12.27c-0.08,1.05-0.23,2.1-0.26,3.16c-0.02,1.06-0.08,2.12-0.03,3.18
							c0.01,2.12,0.25,4.25,0.64,6.34c0.8,4.19,2.56,8.2,5.12,11.67c2.52,3.51,5.62,6.6,8.84,9.57
							c6.47,5.92,13.33,11.56,19.91,17.66c6.61,6.06,13.02,12.46,19.2,19.19c3.07,3.38,6.18,6.77,8.86,10.54
							c2.77,3.7,5.1,7.73,7.14,11.91c4.03,8.4,6.52,17.61,7.34,27.03c0.88,9.42,0.21,19.02-1.66,28.41
							c-0.92,4.7-2.15,9.36-3.66,13.94c-1.51,4.58-3.25,9.1-5.41,13.46l-0.07,0.14h-0.16c-1.38,0-2.88,0-4.39,0
							c-58.18,0-114.31-0.01-166.03-0.01h-0.13l-0.07-0.11c-8.12-12.19-12.94-26.19-14.27-40.23c-1.41-14.04,0.75-28.11,5.9-40.61
							c5.08-12.54,12.98-23.53,22.53-32.18c4.76-4.36,10.06-7.92,15.38-11.22c5.32-3.3,10.69-6.36,15.76-9.7
							c5.05-3.35,9.92-6.92,13.87-11.28c3.97-4.33,7-9.41,8.58-14.88c1.59-5.47,1.61-11.21,0.68-16.61
							c-0.95-5.42-2.85-10.55-5.27-15.27c-2.42-4.73-5.36-9.07-8.58-13.03c-3.21-3.97-6.78-7.5-10.38-10.83
							c-7.21-6.64-14.6-12.45-21.24-18.42c-3.33-2.98-6.48-5.98-9.38-9.07c-2.88-3.11-5.52-6.29-7.78-9.59
							c-4.56-6.58-7.69-13.52-9.75-20.21c-2.06-6.7-3.08-13.18-3.32-19.14c-0.14-1.49-0.08-2.95-0.08-4.37
							c0.02-1.42-0.02-2.82,0.12-4.17c0.1-1.35,0.21-2.67,0.3-3.96c0.15-1.28,0.37-2.52,0.54-3.72c1.5-9.65,4.41-16.71,6.68-21.22
							c0.54-1.15,1.02-2.16,1.54-2.97c0.49-0.83,0.89-1.53,1.22-2.09C155.84,110.8,156.18,110.24,156.18,110.24
							c-0.07,0.12-0.35,0.61-0.97,1.71c-0.32,0.56-0.72,1.26-1.2,2.09c-0.51,0.81-0.98,1.82-1.52,2.97
							c-2.24,4.52-5.12,11.57-6.6,21.21c-0.17,1.2-0.38,2.44-0.53,3.72c-0.1,1.28-0.19,2.6-0.29,3.95c-0.14,1.35-0.1,2.74-0.11,4.16
							c0,1.42-0.05,2.88,0.09,4.36c0.25,5.94,1.28,12.4,3.35,19.08c2.06,6.67,5.19,13.57,9.75,20.12c2.26,3.28,4.89,6.45,7.77,9.55
							c2.9,3.08,6.05,6.07,9.38,9.04c6.64,5.95,14.03,11.75,21.27,18.4c3.6,3.33,7.19,6.87,10.43,10.86
							c3.24,3.98,6.19,8.33,8.63,13.09c2.43,4.75,4.36,9.9,5.32,15.37c0.94,5.45,0.94,11.25-0.67,16.79
							c-1.6,5.53-4.67,10.68-8.66,15.05c-3.99,4.41-8.88,8-13.94,11.36c-5.09,3.36-10.45,6.42-15.76,9.72
							c-5.31,3.3-10.58,6.84-15.31,11.18c-9.49,8.6-17.35,19.55-22.39,32.02c-5.12,12.43-7.26,26.42-5.85,40.38
							c1.33,13.96,6.13,27.88,14.2,40l-0.21-0.11c51.73,0,107.86-0.01,166.03-0.01c1.5,0,3,0,4.39,0l-0.23,0.14
							c2.14-4.31,3.88-8.83,5.38-13.38c1.5-4.56,2.72-9.2,3.64-13.88c1.86-9.35,2.53-18.9,1.65-28.26
							c-0.81-9.36-3.28-18.51-7.29-26.85c-2.03-4.15-4.34-8.16-7.09-11.83c-2.66-3.74-5.76-7.12-8.82-10.49
							c-6.17-6.72-12.57-13.11-19.16-19.17c-6.56-6.09-13.41-11.73-19.9-17.67c-3.22-2.98-6.35-6.09-8.9-9.65
							c-2.59-3.52-4.38-7.62-5.19-11.87c-0.39-2.13-0.63-4.28-0.65-6.42c-0.05-1.07,0.01-2.14,0.03-3.21
							c0.04-1.07,0.18-2.13,0.27-3.19c0.32-4.25,1.31-8.41,2.7-12.39c2.85-7.96,8.03-14.81,14.13-20.26
							c3.02-2.77,6.21-5.3,9.36-7.81c1.58-1.26,3.13-2.52,4.64-3.83c1.48-1.32,2.97-2.69,4.56-3.89c3.18-2.4,6.41-4.66,9.5-7.06
							c3.1-2.38,6.08-4.87,8.88-7.51c2.79-2.64,5.43-5.41,7.81-8.35c2.35-2.96,4.53-6.03,6.39-9.25c3.72-6.44,6.25-13.41,7.67-20.44
							c1.38-7.05,1.6-14.17,1.09-21.06c-0.49-6.91-1.89-13.58-3.59-19.98c-1.66-6.43-4-12.51-6.32-18.41l0.17,0.11
							c-51.69-0.04-93.5-0.07-122.39-0.09c-14.45-0.02-25.67-0.04-33.28-0.05c-3.8-0.01-6.71-0.02-8.66-0.02
							C157.19,110.25,156.18,110.24,156.18,110.24z"/>
					</g>
				</g>
			</g>
			<g>
				<path class="st9" d="M316.67,156.53c25.1,4.13-14.48,48.58-36.88,66.12c-12.97,10.16-26.9,21.17-33.06,36.45
					c-6.99,17.34-1.81,36.82-5.2,54.26c-0.56,2.9-4.84,2.44-4.8-0.51c0.17-11.45-0.14-22.89-2.04-34.16
					c-2.69-15.98-8.84-31.79-20.04-43.51c-9.14-9.56-21.13-15.92-30.89-24.85c-14.24-13.05-28.87-29.88-30.3-49.15
					c0,0,27.34-22.02,42.52-19.24c17.74,3.25,35.2,30.62,62.68,27.48C277.87,167.25,287.56,151.75,316.67,156.53z"/>
			</g>
			<g>
				<path class="st9" d="M318.9,394.48c-0.63-6.28-2.31-13.38-7.88-16.34c-3.37-1.79-7.48-1.59-11.18-0.62
					c-3.7,0.97-7.17,2.65-10.83,3.74c-7.21,2.14-15.11,1.89-22.17-0.7c-6.81-2.5-12.66-7.02-18.98-10.58
					c-6.32-3.56-13.73-6.2-20.77-4.45c-12.14,3.02-18.46,17.64-30.46,21.17c-5.33,1.57-11.06,0.69-16.49-0.54
					c-5.42-1.23-10.87-2.81-16.42-2.6c-4.35,0.16-8.88,1.67-11.94,4.65l0.03-0.04c-0.03,0.03-0.06,0.06-0.09,0.1
					c-0.5,0.5-0.96,1.03-1.38,1.61c-3.72,4.96-4.32,11.64-3.17,17.7c1.28,6.79,4.45,13.06,7.85,19.07
					c4.01,7.08,8.56,14.13,15.18,18.85c8.17,5.82,18.45,1.8,28.45,2.59c23.33,1.84,48.44,3.1,71.77,1.29
					c12.33-0.96,23.88,0.38,33.66-7.18c6.88-5.32,11.36-13.34,13.52-21.77C319.78,411.98,319.77,403.13,318.9,394.48z"/>
			</g>
			<g class="st10">
				<g>
					<path d="M274.86,382.46c-1.32,2.02-1.88,4.72-0.61,6.77c1.27,2.05,2.99,3.91,3.54,6.26c0.87,3.68-1.35,7.29-3.01,10.69
						c-2.96,6.09-4.3,13.03-3.31,19.73c1,6.7,4.43,13.09,9.79,17.23c2.37,1.83,5.45,3.25,8.31,2.35c2.69-0.84,4.43-3.57,4.96-6.34
						c0.53-2.77,0.09-5.62-0.26-8.41c-1.63-12.98-1.3-26.2,0.99-39.08c0.38-2.15,0.75-4.61-0.62-6.32c-0.87-1.09-2.26-1.6-3.59-2.05
						C285.86,381.56,280.25,383.48,274.86,382.46"/>
				</g>
			</g>
			<g>
				<path class="st8" d="M139.83,454.28c0,0-0.47-7.82,9.73-12.18h179.25c0,0,9.35,4.73,10.5,12.01L139.83,454.28z"/>
			</g>
			<g>
				<path class="st8" d="M325.02,111.19c-0.09,0.04-0.19,0.09-0.28,0.13l-168.55-1.08c0,0-0.6-0.38-1.49-1.08
					c-4.8-3.76-2.11-11.47,3.99-11.42l163.59,1.32C329.02,99.11,331.12,108.31,325.02,111.19z"/>
			</g>
			<g class="st10">
				<g>
					<path d="M298.04,175.49c0.34,0.65-0.93,2.06-3.34,4.2c-2.42,2.15-5.96,5.09-10.46,8.72c-4.52,3.6-10,7.93-16.98,11.98
						c-3.5,2.02-7.39,3.85-11.64,5.34c-2.14,0.72-4.36,1.39-6.69,1.85c-2.32,0.5-4.74,0.83-7.23,0.94
						c-4.96,0.28-10.01-0.44-14.53-1.99c-4.49-1.56-8.33-3.76-11.68-5.96c-3.36-2.23-6.26-4.43-8.99-6.53
						c-2.72-2.11-5.2-4.14-7.41-6.06c-8.85-7.67-13.51-13.31-12.61-14.4c0.93-1.13,7.2,2.46,16.96,8.46c2.44,1.5,5.11,3.14,7.98,4.9
						c2.86,1.74,5.94,3.67,9.08,5.45c3.15,1.78,6.44,3.4,9.85,4.45c3.39,1.01,7,1.49,10.84,1.28c7.68-0.39,15.13-3.1,21.58-6.21
						c6.49-3.17,12.29-6.77,17.35-9.6c5.05-2.86,9.38-4.98,12.52-6.11C295.79,175.07,297.71,174.86,298.04,175.49z"/>
				</g>
			</g>
			<g>
				<path class="st9" d="M236.86,334.26c1.85-0.65,4.06,1.21,3.74,3.14c-0.33,1.93-3.03,2.97-4.56,1.75
					c-1.53-1.22-1.13-4.08,0.68-4.83"/>
			</g>
			<g>
				<g>
					<path class="st8" d="M176.58,203.38c-0.01,0.01-0.22-0.19-0.6-0.6c-0.4-0.44-0.95-1.04-1.63-1.79
						c-0.69-0.79-1.6-1.71-2.53-2.88c-0.94-1.17-2.01-2.5-3.18-3.96c-1.09-1.54-2.32-3.19-3.56-5.03c-0.59-0.94-1.2-1.91-1.83-2.91
						c-0.31-0.5-0.64-1-0.94-1.53c-0.29-0.53-0.58-1.07-0.88-1.62c-2.46-4.33-4.65-9.41-6.21-14.95
						c-1.56-5.55-2.29-11.03-2.36-16.02c0-1.25,0.06-2.46,0.09-3.64c0.03-0.59,0.02-1.17,0.08-1.74c0.06-0.57,0.12-1.13,0.18-1.68
						c0.13-1.1,0.21-2.17,0.36-3.19c0.18-1.01,0.36-1.98,0.53-2.91c0.29-1.87,0.78-3.5,1.13-4.95c0.19-0.72,0.34-1.4,0.53-2.01
						c0.2-0.6,0.38-1.16,0.55-1.67c0.32-0.96,0.58-1.73,0.77-2.3c0.18-0.52,0.28-0.79,0.3-0.79c0.02,0.01-0.05,0.29-0.2,0.82
						c-0.17,0.58-0.39,1.35-0.68,2.32c-0.15,0.51-0.32,1.07-0.5,1.67c-0.18,0.61-0.31,1.3-0.49,2.02c-0.33,1.45-0.79,3.09-1.05,4.95
						c-0.16,0.93-0.32,1.89-0.49,2.9c-0.14,1.01-0.21,2.08-0.33,3.17c-0.05,0.55-0.11,1.11-0.17,1.67
						c-0.05,0.57-0.04,1.15-0.06,1.73c-0.02,1.17-0.08,2.38-0.07,3.62c0.09,4.95,0.83,10.38,2.38,15.89
						c1.55,5.5,3.71,10.54,6.13,14.86c0.29,0.55,0.58,1.09,0.87,1.62c0.29,0.53,0.62,1.02,0.93,1.53c0.62,1,1.22,1.97,1.8,2.91
						c1.22,1.84,2.43,3.5,3.5,5.04c1.15,1.48,2.19,2.81,3.11,4c0.9,1.19,1.79,2.12,2.45,2.94c0.65,0.78,1.17,1.39,1.56,1.85
						C176.41,203.14,176.59,203.37,176.58,203.38z"/>
				</g>
			</g>
			<g>
				<g>
					<path class="st8" d="M167.09,351.94c-0.01,0,0.06-0.12,0.19-0.33c0.15-0.23,0.34-0.54,0.59-0.94c0.27-0.42,0.6-0.93,0.98-1.52
						c0.2-0.3,0.41-0.62,0.63-0.97c0.25-0.33,0.53-0.66,0.82-1.03c0.59-0.72,1.25-1.52,1.96-2.4c0.77-0.83,1.65-1.69,2.58-2.63
						c1.9-1.84,4.19-3.8,6.87-5.78c5.31-4.02,12.16-8.02,19.58-12.69c3.68-2.37,7.56-4.87,11.23-7.91
						c3.67-3.02,7.21-6.5,10.08-10.65c5.65-8.4,7.94-18.13,8.15-26.83c0.23-8.76-1.64-16.57-3.83-22.79
						c-2.22-6.24-4.77-11-6.62-14.2c-0.93-1.61-1.69-2.83-2.21-3.66c-0.25-0.4-0.44-0.71-0.59-0.94c-0.13-0.21-0.19-0.33-0.19-0.33
						c0.01,0,0.09,0.1,0.23,0.3c0.16,0.23,0.37,0.53,0.63,0.92c0.55,0.81,1.34,2.02,2.3,3.61c1.91,3.18,4.52,7.92,6.8,14.18
						c2.25,6.24,4.17,14.09,3.97,22.93c-0.04,2.2-0.22,4.46-0.55,6.74c-0.32,2.29-0.8,4.6-1.46,6.91
						c-1.29,4.62-3.35,9.22-6.18,13.46c-2.9,4.21-6.48,7.72-10.18,10.75c-3.7,3.06-7.59,5.55-11.29,7.92
						c-7.45,4.65-14.3,8.61-19.62,12.58c-2.67,1.96-4.97,3.88-6.88,5.69c-0.93,0.93-1.82,1.77-2.59,2.59
						c-0.72,0.86-1.39,1.65-1.99,2.36c-0.3,0.36-0.59,0.68-0.84,1.01c-0.23,0.34-0.45,0.66-0.65,0.95c-0.4,0.58-0.74,1.08-1.02,1.49
						c-0.27,0.38-0.48,0.68-0.64,0.91C167.17,351.85,167.09,351.95,167.09,351.94z"/>
				</g>
			</g>
			<g>
				<g>
					<path class="st8" d="M157.79,369.61c0.02,0.01-0.06,0.17-0.22,0.46c-0.19,0.34-0.43,0.76-0.71,1.27
						c-0.32,0.54-0.7,1.22-1.09,2.03c-0.39,0.81-0.89,1.7-1.31,2.75c-0.23,0.52-0.46,1.06-0.7,1.63c-0.24,0.57-0.44,1.18-0.67,1.8
						c-0.49,1.23-0.87,2.6-1.3,4.03c-0.77,2.88-1.41,6.1-1.75,9.53c-0.3,3.43-0.25,6.72-0.02,9.69c0.17,1.48,0.29,2.9,0.55,4.2
						c0.12,0.65,0.2,1.29,0.33,1.89c0.14,0.6,0.27,1.17,0.4,1.73c0.22,1.11,0.55,2.08,0.79,2.94c0.23,0.87,0.48,1.6,0.7,2.19
						c0.19,0.55,0.34,1.01,0.47,1.38c0.1,0.32,0.15,0.49,0.13,0.5c-0.02,0.01-0.09-0.15-0.23-0.46c-0.15-0.36-0.34-0.81-0.56-1.35
						c-0.25-0.59-0.53-1.31-0.79-2.18c-0.27-0.86-0.62-1.83-0.87-2.94c-0.14-0.55-0.28-1.13-0.43-1.73c-0.15-0.6-0.24-1.24-0.37-1.9
						c-0.28-1.31-0.42-2.74-0.6-4.23c-0.26-3-0.32-6.32-0.02-9.78c0.34-3.46,1-6.71,1.8-9.61c0.45-1.44,0.85-2.81,1.36-4.05
						c0.25-0.62,0.45-1.23,0.71-1.8c0.26-0.56,0.5-1.11,0.74-1.62c0.45-1.05,0.97-1.94,1.39-2.73c0.41-0.8,0.82-1.46,1.17-2
						c0.32-0.49,0.58-0.9,0.8-1.23C157.67,369.74,157.77,369.6,157.79,369.61z"/>
				</g>
			</g>
		</g>
		<g>
			<g>
				<path class="st8" d="M281.42,393.65c0,0.01-0.06,0.06-0.2,0.15c-0.17,0.1-0.37,0.23-0.62,0.39c-0.59,0.36-1.4,0.84-2.43,1.46
					c-0.53,0.32-1.12,0.66-1.76,1.04c-0.66,0.36-1.39,0.7-2.17,1.1c-1.57,0.76-3.32,1.73-5.38,2.5c-1.02,0.42-2.09,0.86-3.2,1.31
					c-1.11,0.45-2.32,0.79-3.54,1.22c-2.43,0.89-5.13,1.52-7.94,2.26c-5.68,1.26-12.03,2.19-18.75,2.41
					c-6.72,0.14-13.12-0.46-18.86-1.42c-2.85-0.59-5.57-1.08-8.05-1.84c-1.24-0.36-2.46-0.64-3.6-1.03
					c-1.13-0.4-2.22-0.78-3.26-1.14c-2.1-0.67-3.89-1.54-5.5-2.22c-0.8-0.35-1.55-0.66-2.23-0.98c-0.66-0.35-1.26-0.66-1.81-0.95
					c-1.06-0.56-1.89-1.01-2.5-1.33c-0.26-0.14-0.47-0.26-0.64-0.36c-0.14-0.08-0.21-0.13-0.21-0.14c0-0.01,0.08,0.02,0.24,0.09
					c0.18,0.08,0.4,0.19,0.67,0.31c0.62,0.3,1.47,0.72,2.54,1.24c0.55,0.27,1.16,0.58,1.83,0.91c0.68,0.31,1.44,0.6,2.24,0.94
					c1.62,0.65,3.41,1.49,5.51,2.14c1.04,0.35,2.12,0.72,3.26,1.11c1.13,0.38,2.35,0.65,3.59,1c2.47,0.74,5.18,1.21,8.02,1.78
					c5.71,0.93,12.07,1.51,18.76,1.38c6.68-0.21,13-1.12,18.66-2.35c2.8-0.72,5.49-1.33,7.92-2.2c1.22-0.41,2.42-0.75,3.53-1.18
					c1.11-0.44,2.18-0.87,3.19-1.27c2.06-0.75,3.81-1.69,5.39-2.42c0.78-0.38,1.52-0.71,2.18-1.06c0.65-0.36,1.24-0.7,1.78-1
					c1.04-0.58,1.87-1.04,2.47-1.37c0.26-0.14,0.48-0.25,0.65-0.35C281.34,393.67,281.42,393.64,281.42,393.65z"/>
			</g>
		</g>
		<g>
			<g>
				<path class="st8" d="M291.85,182.01c0.01,0.01-0.07,0.07-0.21,0.2c-0.17,0.14-0.39,0.32-0.66,0.54
					c-0.61,0.49-1.47,1.17-2.55,2.04c-2.23,1.76-5.44,4.31-9.51,7.35c-4.07,3.02-9.01,6.54-14.87,9.83
					c-2.96,1.58-6.12,3.2-9.58,4.41c-3.45,1.22-7.17,2.15-11.06,2.46c-7.81,0.53-15.22-1.45-21.24-4.42
					c-3.01-1.51-5.73-3.2-8.21-4.88c-2.44-1.72-4.67-3.39-6.64-4.99c-3.96-3.18-7.06-5.87-9.22-7.71c-1.05-0.91-1.88-1.62-2.47-2.14
					c-0.26-0.23-0.47-0.42-0.63-0.57c-0.14-0.13-0.21-0.2-0.2-0.21c0.01-0.01,0.09,0.05,0.24,0.17c0.17,0.14,0.39,0.31,0.67,0.53
					c0.61,0.49,1.46,1.18,2.53,2.06c2.2,1.8,5.33,4.44,9.31,7.58c1.98,1.58,4.22,3.22,6.66,4.92c2.47,1.65,5.18,3.32,8.17,4.81
					c5.98,2.92,13.29,4.85,21,4.33c3.83-0.3,7.5-1.22,10.92-2.42c3.43-1.19,6.57-2.79,9.52-4.35c5.85-3.25,10.79-6.73,14.89-9.71
					c4.09-3,7.34-5.5,9.6-7.21c1.11-0.83,1.99-1.49,2.61-1.96c0.28-0.21,0.51-0.37,0.69-0.5C291.76,182.05,291.85,182,291.85,182.01
					z"/>
			</g>
		</g>
		<g class="st10">
			<g>
				<path d="M201.66,402.05c4.74-3.66,11.4-2.77,17.25-1.54c5.86,1.23,11.76,3.23,17.69,2.4c4.47-0.63,8.57-2.82,12.98-3.78
					c4.41-0.96,9.76-0.25,12.2,3.54C242.39,408.98,220.93,408.76,201.66,402.05"/>
			</g>
		</g>
	</g>
</g>
<g id="Character">
	<g>
		<g>
			<g>
				<g>
					<g>
						<path class="st9" d="M367.03,374.91L345.5,350.8l-0.22,29.31l6.48,18.8l-64.42,11.17l-2.73-50.83l-4.64-39.04
							c-0.57-4.78,2.16-9.35,6.64-11.11l17.73-6.98l24.97,4.58l10.04,3.82c4.22,1.6,7.98,4.22,10.95,7.61l30.24,34.58"/>
					</g>
				</g>
				<g>
					<g>
						<path class="st4" d="M343.99,345.03c0.01-0.1,1.42,0.11,3.64-0.26c2.2-0.34,5.24-1.42,7.76-3.74
							c2.52-2.33,3.83-5.27,4.35-7.43c0.54-2.18,0.45-3.61,0.55-3.61c0.03,0,0.08,0.35,0.09,0.99c0.01,0.64-0.05,1.57-0.28,2.7
							c-0.44,2.24-1.74,5.31-4.36,7.73c-2.62,2.41-5.79,3.46-8.06,3.72c-1.14,0.14-2.07,0.13-2.71,0.06
							C344.33,345.14,343.98,345.06,343.99,345.03z"/>
					</g>
				</g>
				<g>
					<g>
						<g>
							<path class="st8" d="M345.87,378.86c0.15,0,0.19-10.16,0.09-22.68c-0.1-12.53-0.31-22.68-0.46-22.68
								c-0.15,0-0.19,10.15-0.09,22.68C345.52,368.71,345.72,378.86,345.87,378.86z"/>
						</g>
					</g>
				</g>
			</g>
			<g>
				<path class="st9" d="M343.51,386.31l-38.93-15.67c-3.14-1.26-5.29-4.2-5.55-7.57l-2.85-37.32c0,0,0.34-15.87-9.58-16.64
					l-5.64,2.22c-7.29,3.87-9.1,14.48-8.1,22.68c1.41,11.64,2,28.12,3.58,38.22c1.29,8.27,6.03,15.54,14.12,17.67l47.94,10.38
					L343.51,386.31z"/>
			</g>
			<g>
				<g>
					<path class="st8" d="M296.75,331.44c0.02,0,0.06,0.29,0.12,0.85c0.06,0.61,0.15,1.43,0.25,2.46c0.2,2.19,0.48,5.27,0.82,9.05
						c0.33,3.84,0.72,8.38,1.15,13.43c0.11,1.26,0.22,2.56,0.33,3.88c0.12,1.32,0.2,2.68,0.5,3.99c0.29,1.32,0.92,2.56,1.93,3.5
						c1.01,0.94,2.27,1.64,3.59,2.23c10.73,4.64,20.63,8.48,27.81,11.17c3.56,1.31,6.46,2.38,8.53,3.14
						c0.97,0.36,1.74,0.64,2.32,0.85c0.53,0.2,0.8,0.31,0.8,0.33c-0.01,0.02-0.29-0.06-0.83-0.23c-0.58-0.19-1.36-0.44-2.35-0.76
						c-2.04-0.68-4.97-1.69-8.59-2.99c-7.22-2.6-17.13-6.38-27.9-11.04c-1.34-0.61-2.65-1.32-3.73-2.33c-1.09-1-1.79-2.38-2.08-3.76
						c-0.31-1.38-0.38-2.75-0.5-4.07c-0.11-1.32-0.21-2.62-0.31-3.88c-0.39-5.05-0.74-9.6-1.04-13.44c-0.28-3.79-0.5-6.87-0.66-9.06
						c-0.06-1.03-0.11-1.86-0.15-2.47C296.74,331.74,296.73,331.44,296.75,331.44z"/>
				</g>
			</g>
			<g>
				<g>
					<path class="st8" d="M274.45,351.73c0.02,0,0.04,0.17,0.08,0.5c0.03,0.39,0.08,0.86,0.13,1.44c0.12,1.33,0.27,3.12,0.46,5.3
						c0.21,2.23,0.48,4.89,0.87,7.83c0.4,2.93,0.87,6.17,1.76,9.45c0.42,1.66,1.01,3.19,1.9,4.51c0.89,1.33,1.88,2.52,2.91,3.57
						c2.06,2.1,4.26,3.65,6.23,4.67c3.98,2.07,6.88,2.1,6.84,2.24c0,0.02-0.18,0.01-0.51-0.01c-0.33-0.02-0.82-0.06-1.44-0.19
						c-1.24-0.22-3.03-0.71-5.06-1.71c-2.03-1-4.29-2.54-6.4-4.66c-1.05-1.07-2.07-2.27-2.99-3.62c-0.93-1.36-1.56-2.99-1.98-4.65
						c-0.9-3.33-1.36-6.58-1.73-9.53c-0.36-2.95-0.6-5.62-0.76-7.86c-0.16-2.24-0.25-4.06-0.3-5.31c-0.01-0.58-0.02-1.06-0.03-1.45
						C274.42,351.9,274.43,351.73,274.45,351.73z"/>
				</g>
			</g>
			<g>
				<g>
					<path class="st8" d="M291.09,377.84c-0.05-0.01,0.11-0.85,0.71-2.07c0.59-1.22,1.68-2.81,3.27-4.17
						c1.59-1.36,3.33-2.19,4.63-2.58c1.31-0.4,2.15-0.43,2.16-0.38c0.02,0.09-0.8,0.25-2.04,0.72c-1.24,0.47-2.88,1.32-4.41,2.62
						c-1.53,1.31-2.63,2.8-3.28,3.95C291.46,377.09,291.17,377.87,291.09,377.84z"/>
				</g>
			</g>
			<g>
				<g>
					<path class="st4" d="M298.75,349.46c0-0.01,0.09,0.03,0.25,0.11c0.18,0.1,0.41,0.22,0.7,0.37c0.62,0.29,1.54,0.76,2.78,1.18
						c2.45,0.85,6.28,1.71,10.91,0.93c4.57-0.75,9.88-3.44,13.56-8.43c1.82-2.46,3.23-5.49,3.55-8.82c0.16-1.65,0.03-3.37-0.52-4.99
						c-0.53-1.62-1.51-3.11-2.81-4.29c-1.29-1.18-2.89-2.01-4.57-2.22c-1.66-0.26-3.43,0.18-4.58,1.29c-0.56,0.56-0.9,1.3-0.89,2.07
						c0,0.77,0.29,1.52,0.75,2.14c0.92,1.26,2.48,1.85,3.96,2.07c3.03,0.42,6.01-0.13,8.51-1.22c2.51-1.09,4.56-2.72,6.03-4.51
						c1.48-1.8,2.39-3.75,2.93-5.51c0.55-1.77,0.71-3.38,0.74-4.68c0.02-1.31-0.12-2.32-0.22-3c-0.06-0.32-0.1-0.57-0.14-0.77
						c-0.03-0.17-0.04-0.27-0.03-0.27c0,0,0.55,1.39,0.6,4.04c0,1.32-0.13,2.95-0.66,4.77c-0.53,1.8-1.43,3.8-2.93,5.66
						c-1.49,1.85-3.58,3.53-6.14,4.67c-2.56,1.13-5.61,1.71-8.75,1.3c-1.55-0.22-3.24-0.83-4.29-2.24
						c-0.51-0.68-0.86-1.54-0.86-2.44c-0.01-0.9,0.4-1.79,1.04-2.43c1.3-1.26,3.23-1.71,5.01-1.44c1.8,0.23,3.5,1.11,4.85,2.35
						c1.36,1.24,2.39,2.81,2.95,4.51c0.57,1.7,0.71,3.49,0.54,5.2c-0.34,3.44-1.8,6.55-3.67,9.06c-3.78,5.08-9.23,7.79-13.89,8.5
						c-4.72,0.75-8.59-0.19-11.04-1.1C299.92,350.36,298.75,349.46,298.75,349.46z"/>
				</g>
			</g>
			<g>
				<g>
					<path class="st4" d="M273.25,339.51c-0.02-0.02,0.19-0.31,0.64-0.8c0.45-0.48,1.14-1.14,2.1-1.83
						c1.89-1.42,5.02-2.71,8.61-3.05c1.8-0.19,3.54-0.11,5.07,0.21c1.54,0.32,2.86,0.84,3.91,1.37c1.05,0.53,1.85,1.06,2.38,1.45
						c0.53,0.39,0.8,0.63,0.78,0.66c-0.05,0.08-1.22-0.8-3.32-1.77c-2.08-0.99-5.26-1.82-8.77-1.4c-3.52,0.33-6.56,1.53-8.46,2.84
						C274.27,338.47,273.32,339.58,273.25,339.51z"/>
				</g>
			</g>
			<g>
				<g>
					<path class="st4" d="M279.48,312.82c0.08-0.09,1,1.19,3.15,2.29c1.06,0.55,2.44,1.01,4.01,1.18c1.57,0.17,3.34-0.01,5.02-0.69
						c1.67-0.71,3.05-1.83,4.04-3.06c1-1.23,1.64-2.52,2.01-3.67c0.74-2.3,0.49-3.85,0.61-3.85c0.03,0,0.11,0.37,0.13,1.06
						c0.03,0.69-0.05,1.7-0.39,2.89c-0.33,1.19-0.96,2.56-1.98,3.86c-1.01,1.29-2.45,2.49-4.22,3.24c-1.78,0.72-3.64,0.89-5.27,0.69
						c-1.64-0.2-3.05-0.72-4.13-1.33c-1.08-0.61-1.85-1.27-2.32-1.77C279.66,313.16,279.45,312.84,279.48,312.82z"/>
				</g>
			</g>
			<g>
				<g>
					<path class="st4" d="M313.4,374.19c-0.02,0,0.01-0.25,0.08-0.74c0.11-0.47,0.26-1.18,0.69-2.01c0.79-1.68,2.74-3.78,5.83-5.06
						c3.04-1.37,7.23-1.63,11.44-0.41c2.06,0.61,4.42,1.37,5.96,3.38c0.76,0.99,1.01,2.46,0.44,3.66c-0.55,1.21-1.63,2.04-2.77,2.62
						c-1.16,0.57-2.42,0.89-3.69,0.91c-1.25,0.02-2.56-0.29-3.54-1.1c-0.99-0.8-1.51-2.03-1.58-3.21c-0.09-1.19,0.15-2.33,0.53-3.37
						c1.66-4.16,5.01-6.81,8.02-8.12c3.06-1.34,5.83-1.48,7.66-1.32c1.84,0.19,2.8,0.59,2.8,0.59c-0.02,0.07-0.99-0.26-2.81-0.39
						c-1.81-0.1-4.52,0.1-7.49,1.45c-1.48,0.67-3,1.64-4.37,2.96c-1.36,1.32-2.59,3-3.36,4.98c-0.36,0.99-0.58,2.08-0.49,3.17
						c0.08,1.08,0.54,2.15,1.41,2.85c0.86,0.71,2.04,1,3.21,0.97c1.18-0.02,2.37-0.33,3.46-0.86c1.07-0.54,2.06-1.32,2.53-2.37
						c0.49-1.03,0.29-2.26-0.38-3.15c-0.66-0.91-1.62-1.56-2.6-2.07c-0.99-0.5-2.05-0.84-3.08-1.15c-4.13-1.22-8.19-1-11.17,0.29
						c-3.03,1.21-4.97,3.2-5.79,4.81C313.49,373.15,313.47,374.21,313.4,374.19z"/>
				</g>
			</g>
			<g>
				<g>
					<path class="st4" d="M287.48,388.24c-0.02-0.1,1.48-0.22,3.73-1.03c2.24-0.78,5.21-2.39,7.65-5.08
						c2.44-2.7,3.73-5.82,4.29-8.13c0.57-2.32,0.55-3.82,0.65-3.82c0.03,0,0.07,0.37,0.06,1.05c-0.01,0.68-0.1,1.66-0.34,2.85
						c-0.47,2.37-1.75,5.61-4.26,8.39c-2.51,2.78-5.61,4.38-7.92,5.08c-1.16,0.36-2.13,0.55-2.8,0.63
						C287.86,388.27,287.48,388.27,287.48,388.24z"/>
				</g>
			</g>
			<g>
				<g>
					<path class="st4" d="M274.86,359.23c0-0.02,0.16-0.08,0.47-0.19c0.31-0.1,0.78-0.25,1.39-0.4c1.21-0.29,3.03-0.7,5.3-0.54
						c1.13,0.09,2.37,0.35,3.6,0.89c1.23,0.54,2.45,1.4,3.36,2.64c0.89,1.24,1.44,2.85,1.31,4.54c-0.06,0.84-0.32,1.68-0.77,2.43
						c-0.46,0.74-1.14,1.41-2.04,1.71c-0.89,0.28-1.93,0.14-2.63-0.52c-0.69-0.67-0.86-1.61-0.91-2.43
						c-0.06-1.66,0.3-3.25,0.92-4.63c1.24-2.79,3.54-4.62,5.68-5.39c2.15-0.8,4.06-0.74,5.29-0.52c0.62,0.11,1.1,0.25,1.41,0.36
						c0.31,0.12,0.47,0.19,0.46,0.2c-0.02,0.05-0.67-0.21-1.9-0.36c-1.22-0.15-3.07-0.14-5.13,0.67c-2.04,0.78-4.21,2.56-5.37,5.24
						c-0.58,1.32-0.91,2.84-0.85,4.41c0.04,0.76,0.22,1.57,0.75,2.08c0.53,0.5,1.38,0.63,2.12,0.4c0.74-0.24,1.35-0.82,1.76-1.48
						c0.41-0.67,0.64-1.44,0.71-2.21c0.13-1.54-0.37-3.06-1.19-4.22c-0.84-1.16-1.99-1.99-3.15-2.53c-1.17-0.54-2.36-0.81-3.46-0.92
						c-2.21-0.2-4.01,0.14-5.23,0.37C275.55,359.09,274.88,359.27,274.86,359.23z"/>
				</g>
			</g>
			<g class="st11">
				<g>
					<path d="M332.32,381.86c-4.16-2.35-8.23-4.16-12.59-6.14c-4.35-1.98-8.62-4.52-11.46-8.36c-5.37-7.24-4.76-17.69-10.26-24.84
						c0.36,4.8,0.72,9.61,1.08,14.41c0.33,4.4-0.35,8.76,2.49,11.75c2.39,2.52,7.05,4.45,10.35,5.54
						C318.56,376.43,325.7,379.68,332.32,381.86"/>
				</g>
			</g>
		</g>
		<g>
			<g>
				<g>
					<path class="st9" d="M399.96,436.71c0,0,32.57,9.01,33.88,9.47c1.96,0.69,1.63,7.88-1.42,7.77c-1.44-0.05-25.02,0.88-28,0.69
						c-2.98-0.19-11.96-3.73-11.96-3.73L399.96,436.71z"/>
				</g>
			</g>
			<g>
				<g>
					<g>
						<path class="st8" d="M413.53,449.14c0.16,0.02,0.38-1.7,1.44-3.5c1.03-1.81,2.4-2.87,2.3-3c-0.06-0.13-1.67,0.79-2.78,2.73
							C413.37,447.29,413.39,449.15,413.53,449.14z"/>
					</g>
				</g>
			</g>
			<g>
				<g>
					<g>
						<path class="st8" d="M410.13,447.6c0.16,0.03,0.49-1.51,1.36-3.21c0.85-1.71,1.89-2.89,1.77-3c-0.09-0.11-1.36,0.96-2.26,2.76
							C410.09,445.94,410,447.59,410.13,447.6z"/>
					</g>
				</g>
			</g>
			<g>
				<g>
					<g>
						<path class="st8" d="M406.95,446.75c0.16-0.01,0.04-1.64,0.76-3.44c0.69-1.82,1.89-2.93,1.77-3.05
							c-0.07-0.12-1.53,0.88-2.28,2.85C406.43,445.06,406.82,446.79,406.95,446.75z"/>
					</g>
				</g>
			</g>
			<g>
				<g>
					<g>
						<path class="st8" d="M407.53,442.54c0.06,0.01,0.35-0.89,0.35-2.42c0-0.76-0.09-1.67-0.33-2.66c-0.12-0.49-0.28-1-0.48-1.51
							c-0.11-0.26-0.23-0.56-0.52-0.8c-0.3-0.27-0.86-0.22-1.12,0.06c-0.3,0.26-0.39,0.63-0.43,0.92c-0.03,0.3-0.05,0.58-0.04,0.86
							c0.01,0.56,0.08,1.1,0.2,1.59c0.24,0.99,0.63,1.83,1,2.49c0.76,1.32,1.42,2,1.46,1.96c0.07-0.05-0.47-0.81-1.12-2.14
							c-0.32-0.66-0.65-1.48-0.85-2.42c-0.1-0.47-0.16-0.97-0.16-1.49c0.01-0.5,0.01-1.13,0.3-1.37c0.16-0.13,0.3-0.14,0.43-0.04
							c0.14,0.11,0.26,0.33,0.36,0.57c0.2,0.49,0.37,0.97,0.49,1.44c0.26,0.94,0.38,1.81,0.43,2.54
							C407.59,441.61,407.44,442.53,407.53,442.54z"/>
					</g>
				</g>
			</g>
			<g>
				<g>
					<g>
						<path class="st8" d="M407.49,442.21c0.02-0.06-0.77-0.33-2.1-0.34c-0.66,0-1.46,0.07-2.31,0.28
							c-0.42,0.11-0.88,0.22-1.33,0.49c-0.45,0.23-0.91,0.85-0.74,1.49c0.14,0.61,0.66,1.03,1.17,1.16c0.52,0.14,1.02,0.09,1.46,0
							c0.89-0.21,1.59-0.65,2.12-1.04c1.04-0.82,1.55-1.45,1.51-1.49c-0.06-0.07-0.67,0.47-1.74,1.18c-0.53,0.34-1.2,0.71-2,0.86
							c-0.4,0.08-0.82,0.1-1.21-0.02c-0.38-0.11-0.7-0.4-0.79-0.77c-0.09-0.36,0.13-0.7,0.48-0.91c0.35-0.22,0.78-0.34,1.18-0.46
							c0.81-0.23,1.56-0.34,2.19-0.38C406.67,442.17,407.47,442.3,407.49,442.21z"/>
					</g>
				</g>
			</g>
			<g>
				<g>
					<g>
						<path class="st8" d="M418.54,449.49c0.16-0.02,0-1.41,0.64-2.94c0.61-1.54,1.7-2.42,1.59-2.55c-0.05-0.13-1.42,0.64-2.1,2.34
							C417.97,448.04,418.4,449.55,418.54,449.49z"/>
					</g>
				</g>
			</g>
			<g>
				<g>
					<g>
						<path class="st8" d="M395.81,450.99c-0.01,0.03,0.43,0.24,1.26,0.59c0.84,0.32,2.06,0.76,3.62,1.12
							c3.11,0.78,7.56,1.23,12.43,1.18c4.88-0.05,9.28-0.28,12.47-0.4c1.51-0.08,2.77-0.15,3.77-0.2c0.89-0.06,1.38-0.11,1.38-0.15
							c0-0.04-0.5-0.06-1.39-0.06c-1,0.01-2.27,0.02-3.78,0.03c-3.3,0.06-7.65,0.15-12.46,0.24c-4.86,0.05-9.24-0.33-12.35-1.01
							C397.66,451.69,395.85,450.89,395.81,450.99z"/>
					</g>
				</g>
			</g>
			<g>
				<g>
					<g>
						<path class="st8" d="M394.85,451.74c0.04,0.08,0.94-0.45,2.44-1.11c1.49-0.64,3.72-1.4,6.16-1.02
							c2.45,0.38,4.19,2.02,5.33,3.17c1.14,1.19,1.81,1.97,1.88,1.92c0.05-0.04-0.51-0.91-1.59-2.18c-0.55-0.63-1.25-1.36-2.16-2.02
							c-0.9-0.66-2.06-1.23-3.36-1.43c-2.63-0.4-4.94,0.48-6.41,1.21C395.63,451.05,394.81,451.68,394.85,451.74z"/>
					</g>
				</g>
			</g>
		</g>
		<g>
			<g>
				<g>
					<path class="st9" d="M365.39,427.72c0,0-30.82,20.18-31.93,21.01c-1.66,1.25,0.24,7.23,3.12,6.19c1.36-0.49,27.22-7.68,30-8.77
						c2.78-1.08,10.27-7.18,10.27-7.18L365.39,427.72z"/>
				</g>
			</g>
			<g>
				<g>
					<g>
						<path class="st8" d="M356.24,443.68c0.14-0.03-0.41-1.81-2.06-3.3c-1.64-1.51-3.46-1.89-3.47-1.75
							c-0.06,0.15,1.58,0.74,3.1,2.16C355.36,442.18,356.09,443.75,356.24,443.68z"/>
					</g>
				</g>
			</g>
			<g>
				<g>
					<g>
						<path class="st8" d="M359.01,441.18c0.13-0.05-0.47-1.6-1.88-3.03c-1.4-1.44-2.94-2.07-2.99-1.94
							c-0.08,0.14,1.27,0.95,2.6,2.32C358.08,439.89,358.86,441.26,359.01,441.18z"/>
					</g>
				</g>
			</g>
			<g>
				<g>
					<g>
						<path class="st8" d="M361.78,439.4c0.14,0-0.01-1.76-1.35-3.39c-1.32-1.64-3.01-2.16-3.04-2.02c-0.07,0.15,1.4,0.84,2.61,2.36
							C361.25,437.86,361.62,439.44,361.78,439.4z"/>
					</g>
				</g>
			</g>
			<g>
				<g>
					<g>
						<path class="st8" d="M359.95,435.57c0.08-0.04-0.34-0.87-0.7-2.31c-0.18-0.72-0.32-1.58-0.36-2.55
							c-0.02-0.48-0.01-0.99,0.03-1.52c0.02-0.25,0.06-0.5,0.17-0.65c0.1-0.14,0.23-0.17,0.42-0.1c0.35,0.14,0.54,0.74,0.7,1.21
							c0.16,0.49,0.26,0.99,0.3,1.47c0.1,0.96,0.02,1.84-0.08,2.57c-0.22,1.46-0.51,2.35-0.42,2.38c0.06,0.02,0.48-0.82,0.8-2.31
							c0.16-0.74,0.27-1.66,0.2-2.68c-0.04-0.51-0.13-1.04-0.29-1.58c-0.08-0.27-0.18-0.53-0.3-0.81c-0.13-0.27-0.33-0.59-0.69-0.75
							c-0.33-0.18-0.88-0.07-1.08,0.29c-0.21,0.32-0.23,0.64-0.25,0.92c-0.04,0.55-0.04,1.08,0,1.59c0.07,1.01,0.26,1.9,0.49,2.63
							C359.35,434.82,359.9,435.6,359.95,435.57z"/>
					</g>
				</g>
			</g>
			<g>
				<g>
					<g>
						<path class="st8" d="M359.89,435.24c0.04,0.08,0.76-0.29,2-0.59c0.62-0.15,1.37-0.28,2.21-0.3c0.42-0.01,0.87-0.02,1.27,0.08
							c0.4,0.09,0.72,0.34,0.74,0.72c0.03,0.39-0.19,0.76-0.52,0.98c-0.33,0.23-0.75,0.33-1.15,0.38c-0.81,0.09-1.55-0.05-2.17-0.22
							c-1.23-0.35-1.98-0.68-2.01-0.59c-0.02,0.06,0.65,0.5,1.9,0.96c0.62,0.22,1.42,0.42,2.33,0.35c0.45-0.04,0.94-0.14,1.39-0.44
							c0.45-0.28,0.82-0.84,0.76-1.46c-0.03-0.67-0.66-1.11-1.15-1.19c-0.52-0.12-0.98-0.08-1.42-0.06
							c-0.88,0.06-1.66,0.23-2.29,0.43C360.53,434.69,359.86,435.19,359.89,435.24z"/>
					</g>
				</g>
			</g>
			<g>
				<g>
					<g>
						<path class="st8" d="M340.51,453.8c0.04,0.05,0.52-0.31,0.75-1.19c0.26-0.86,0.1-2.19-0.58-3.34
							c-0.32-0.59-0.69-1.09-1.03-1.54c-0.34-0.45-0.69-0.85-1.05-1.12c-0.36-0.28-0.73-0.4-0.98-0.41
							c-0.26-0.01-0.39,0.05-0.39,0.08c0,0.08,0.55,0.04,1.12,0.62c0.29,0.28,0.58,0.66,0.89,1.12c0.32,0.46,0.66,0.96,0.96,1.5
							c0.62,1.09,0.81,2.21,0.68,3.01C340.78,453.33,340.44,453.75,340.51,453.8z"/>
					</g>
				</g>
			</g>
			<g>
				<g>
					<g>
						<path class="st8" d="M351.58,445.53c0.14,0.01,0.1-1.55-1.09-2.95c-1.17-1.42-2.7-1.74-2.71-1.6
							c-0.06,0.15,1.24,0.66,2.29,1.94C351.15,444.19,351.42,445.57,351.58,445.53z"/>
					</g>
				</g>
			</g>
			<g>
				<g>
					<g>
						<path class="st8" d="M373.69,440.07c-0.03-0.03-0.5,0.32-1.35,0.93c-0.87,0.6-2.14,1.44-3.8,2.33
							c-1.66,0.89-3.7,1.81-6.04,2.69c-2.33,0.87-4.95,1.69-7.72,2.49c-5.54,1.6-10.56,3.06-14.19,4.15
							c-1.74,0.53-3.18,0.98-4.28,1.32c-1.01,0.32-1.56,0.52-1.55,0.55c0.01,0.04,0.58-0.09,1.61-0.35c1.12-0.3,2.57-0.68,4.33-1.15
							c3.65-0.99,8.68-2.39,14.23-3.99c2.77-0.8,5.4-1.64,7.74-2.55c2.34-0.91,4.39-1.88,6.04-2.82c1.65-0.94,2.91-1.84,3.74-2.5
							C373.28,440.49,373.71,440.09,373.69,440.07z"/>
					</g>
				</g>
			</g>
			<g>
				<g>
					<g>
						<path class="st8" d="M374.83,440.48c0.02-0.06-0.96-0.42-2.61-0.69c-1.63-0.26-4.1-0.39-6.48,0.79
							c-1.18,0.58-2.11,1.48-2.77,2.38c-0.67,0.91-1.11,1.81-1.44,2.58c-0.65,1.54-0.92,2.54-0.86,2.56
							c0.08,0.03,0.48-0.92,1.21-2.4c0.73-1.43,1.89-3.53,4.11-4.64c2.22-1.1,4.57-1.05,6.18-0.9
							C373.8,440.34,374.81,440.56,374.83,440.48z"/>
					</g>
				</g>
			</g>
		</g>
		<g>
			<g>
				<g>
					<path class="st8" d="M429.44,378.51c0,0,9.25,3.3,9.28,13.67c0.07,19.86-40.12,41.75-40.12,41.75l-53.49-35.45l-3.35-1.36
						C341.75,397.12,413.97,370,429.44,378.51z"/>
				</g>
			</g>
			<g>
				<g>
					<g>
						<path class="st12" d="M372.2,416.38c0.02,0.03,0.52-0.31,1.39-0.95c0.88-0.64,2.13-1.58,3.66-2.76
							c3.06-2.37,7.23-5.72,11.71-9.57c4.48-3.85,8.43-7.46,11.23-10.13c1.4-1.33,2.52-2.43,3.28-3.2c0.76-0.77,1.17-1.21,1.14-1.23
							c-0.03-0.03-0.48,0.36-1.29,1.08c-0.87,0.79-2.02,1.82-3.4,3.07c-2.87,2.59-6.85,6.16-11.33,10c-4.48,3.84-8.6,7.24-11.6,9.68
							c-1.44,1.18-2.64,2.15-3.55,2.9C372.63,415.96,372.18,416.35,372.2,416.38z"/>
					</g>
				</g>
			</g>
			<g>
				<g>
					<g>
						<path class="st12" d="M414.34,385.93c0.02-0.13-2.37-0.37-5.15,0.47c-2.8,0.81-4.67,2.31-4.58,2.41
							c0.09,0.14,2.04-1.1,4.74-1.88C412.03,386.11,414.34,386.1,414.34,385.93z"/>
					</g>
				</g>
			</g>
			<g>
				<g>
					<g>
						<path class="st12" d="M409.73,382.8c-0.05-0.13-1.76,0.63-3.17,2.39c-1.42,1.75-1.8,3.58-1.66,3.6
							c0.16,0.05,0.74-1.61,2.09-3.26C408.31,383.86,409.82,382.94,409.73,382.8z"/>
					</g>
				</g>
			</g>
			<g>
				<g>
					<g>
						<path class="st8" d="M432.38,445.68c0.03-0.06-0.64-0.19-1.38,0.42c-0.73,0.58-1.35,1.75-1.55,3.1
							c-0.2,1.37,0.1,2.63,0.49,3.42c0.38,0.81,0.79,1.19,0.84,1.16c0.07-0.05-0.22-0.5-0.48-1.3c-0.27-0.79-0.49-1.95-0.31-3.2
							c0.18-1.25,0.69-2.33,1.27-2.9C431.83,445.79,432.39,445.77,432.38,445.68z"/>
					</g>
				</g>
			</g>
		</g>
		<g>
			<g>
				<polygon class="st12" points="417.14,346.06 398.08,394.36 316.04,395.7 314.53,391.26 343.28,390.22 357.1,347.37 				"/>
			</g>
			<g>
				<path class="st2" d="M378.82,366.97c1.05-0.71,3-0.43,3.95,0.42c0.95,0.85,1.25,2.32,0.77,3.5c-0.48,1.18-1.69,2-2.96,2.07
					c-1.35,0.07-2.76-0.77-3.13-2.07C377.07,369.59,377.49,367.66,378.82,366.97"/>
			</g>
		</g>
		<g>
			<g>
				<g>
					<path class="st8" d="M403.66,436.34c0,0-75.58-49.58-78.68-50.61c-3.09-1.03-10.57-5.93-18.05-3.87
						c-7.48,2.06-14.18,8.77-17.54,18.57c-1.92,5.6-2.82,15.15-3.24,22.32c-0.51,8.57,2.14,17.11,7.75,23.61
						c2.55,2.96,5.69,5.53,9.42,6.69c0.79,0.24,1.6,0.46,2.44,0.64c14.29,3.1,28.98-3.32,37-15.54l1.76-2.68
						c0,0,49.44,18.16,50.22,17.91L403.66,436.34z"/>
				</g>
			</g>
			<g>
				<g>
					<g>
						<path class="st12" d="M310.16,422.69c0,0,0.14,0.07,0.41,0.18c0.3,0.12,0.71,0.28,1.24,0.49c1.12,0.43,2.72,1.05,4.79,1.84
							c4.2,1.58,10.27,3.87,17.81,6.71c7.56,2.82,16.63,6.18,26.79,9.88c10.17,3.7,21.43,7.75,33.47,11.83l0.22,0.07l0.11-0.21
							c1.89-3.61,3.88-7.41,5.9-11.28c1.03-1.97,2.05-3.93,3.01-5.75l0.12-0.22l-0.21-0.13c-22.7-14.41-43-27.3-57.65-36.6
							c-7.32-4.62-13.22-8.34-17.32-10.92c-2.03-1.27-3.61-2.25-4.7-2.94c-0.52-0.32-0.93-0.57-1.23-0.75
							c-0.28-0.17-0.43-0.24-0.43-0.24s0.13,0.1,0.4,0.29c0.29,0.19,0.69,0.46,1.2,0.8c1.08,0.7,2.64,1.72,4.65,3.02
							c4.08,2.62,9.95,6.39,17.23,11.07c14.63,9.34,34.9,22.28,57.56,36.74l-0.09-0.35c-0.96,1.83-1.98,3.78-3.01,5.75
							c-2.02,3.86-4.01,7.67-5.9,11.28l0.33-0.13c-12.03-4.06-23.3-8.1-33.47-11.77c-10.16-3.7-19.24-7-26.83-9.76
							c-7.56-2.77-13.65-5.01-17.86-6.55c-2.08-0.76-3.7-1.35-4.83-1.76c-0.54-0.19-0.95-0.34-1.25-0.44
							C310.31,422.73,310.16,422.69,310.16,422.69z"/>
					</g>
				</g>
			</g>
		</g>
		<g>
			<g>
				<path class="st8" d="M318,246.64c1.29-3.48,4.14-5,7.75-5.87s7.63,0.16,10.37,2.67c1.83,1.68,3.17,4,5.44,5.02
					c3.73,1.69,8.5-0.78,12.03,1.29c2.09,1.22,3.12,4,2.32,6.29c-0.8,2.29-3.33,3.83-5.72,3.49c2.43,1.15,2.88,4.8,1.21,6.9
					s-4.76,2.67-7.35,1.94c-2.58-0.73-4.73-2.53-6.55-4.5c-1.83-1.97-3.42-4.15-5.4-5.97c-1.98-1.82-4.44-3.28-7.12-3.38
					c-3.63-0.14-6.98,2.31-8.89,5.4c-1.91,3.09-2.62,6.76-3.15,10.36c-0.53,3.6-0.93,7.26-2.32,10.62c-0.16,0.39-0.4,0.83-0.81,0.92
					c-0.6,0.13-1.05-0.54-1.29-1.11c-2.73-6.4-4.19-13.35-4.26-20.31c-0.04-4.04,0.41-7.83,2.92-10.99S315.47,244.26,318,246.64"/>
			</g>
			<g>
				<g>
					<g>
						<g>
							<g>
								<g>
									<g>
										<g>
											<g>
												<g>
													<g>
														<g>
															<g>
																<g>
																	<path class="st13" d="M309.48,262.77l-5.56,40.38c-0.94,6.87,4.05,13.13,10.95,13.73l0,0
																		c6.44,0.56,12.2-4.04,13.07-10.44c0.42-3.04,0.77-5.57,0.83-5.88c0,0,10.41,0.45,12.55-9.62
																		c1.04-4.87,2.35-15.06,3.43-24.3c1.16-9.92-5.5-19.07-15.3-21.03l-0.97-0.19
																		C317.87,243.91,310.67,252.11,309.48,262.77z"/>
																</g>
															</g>
														</g>
													</g>
												</g>
											</g>
										</g>
									</g>
									<g>
										<g>
											<g>
												<g>
													<g>
														<g>
															<g>
																<g>
																	<path class="st14" d="M328.82,300.41c0,0-6.48-0.76-12.41-6.37c0,0,1.66,7.89,11.92,8.99L328.82,300.41z"/>
																</g>
															</g>
														</g>
													</g>
												</g>
											</g>
										</g>
									</g>
								</g>
							</g>
						</g>
						<g>
							<g>
								<g>
									<g>
										<g>
											<g>
												<g>
													<g>
														<g>
															<g>
																<g>
																	<g>
																		<g>
																			<g>
																				<path class="st8" d="M340.47,272.8c-0.13,0.77-0.88,1.29-1.68,1.18c-0.8-0.12-1.35-0.83-1.23-1.6
																					c0.13-0.77,0.88-1.29,1.68-1.18C340.05,271.31,340.6,272.03,340.47,272.8z"/>
																			</g>
																		</g>
																	</g>
																</g>
															</g>
														</g>
													</g>
												</g>
												<g>
													<g>
														<g>
															<g>
																<g>
																	<g>
																		<g>
																			<g>
																				<g>
																					<path class="st8" d="M341.61,271.14c-0.22,0.15-1.15-0.87-2.7-1.18c-1.55-0.33-2.84,0.24-2.97,0.02
																						c-0.07-0.1,0.18-0.4,0.75-0.67c0.56-0.26,1.46-0.45,2.43-0.25c0.97,0.2,1.71,0.72,2.1,1.17
																						C341.62,270.7,341.71,271.08,341.61,271.14z"/>
																				</g>
																			</g>
																		</g>
																	</g>
																</g>
															</g>
														</g>
													</g>
												</g>
											</g>
											<g>
												<g>
													<g>
														<g>
															<g>
																<g>
																	<g>
																		<g>
																			<g>
																				<path class="st8" d="M325.15,270.28c-0.13,0.77-0.88,1.29-1.68,1.18c-0.8-0.12-1.35-0.83-1.23-1.6
																					c0.13-0.77,0.88-1.29,1.68-1.18C324.73,268.8,325.28,269.52,325.15,270.28z"/>
																			</g>
																		</g>
																	</g>
																</g>
															</g>
														</g>
													</g>
												</g>
												<g>
													<g>
														<g>
															<g>
																<g>
																	<g>
																		<g>
																			<g>
																				<g>
																					<path class="st8" d="M326.3,268.39c-0.22,0.15-1.15-0.87-2.7-1.18c-1.55-0.33-2.84,0.24-2.97,0.02
																						c-0.07-0.1,0.18-0.4,0.75-0.67c0.56-0.26,1.46-0.45,2.43-0.25c0.97,0.2,1.71,0.72,2.1,1.17
																						C326.31,267.95,326.4,268.32,326.3,268.39z"/>
																				</g>
																			</g>
																		</g>
																	</g>
																</g>
															</g>
														</g>
													</g>
												</g>
											</g>
											<g>
												<g>
													<g>
														<g>
															<g>
																<g>
																	<g>
																		<g>
																			<g>
																				<path class="st8" d="M329.63,281.02c0.01-0.09,1.01-0.06,2.61,0.05c0.4,0.04,0.8,0.03,0.92-0.22
																					c0.15-0.27,0.07-0.73-0.03-1.23c-0.18-1.03-0.37-2.12-0.57-3.25c-0.77-4.62-1.24-8.39-1.05-8.42
																					c0.19-0.03,0.96,3.69,1.73,8.31c0.18,1.14,0.35,2.22,0.52,3.26c0.06,0.48,0.22,1.04-0.11,1.6
																					c-0.17,0.27-0.5,0.43-0.77,0.45c-0.27,0.03-0.49-0.01-0.69-0.04C330.6,281.29,329.62,281.11,329.63,281.02z"/>
																			</g>
																		</g>
																	</g>
																</g>
															</g>
														</g>
													</g>
												</g>
											</g>
											<g>
												<g>
													<g>
														<g>
															<g>
																<g>
																	<g>
																		<g>
																			<g>
																				<path class="st8" d="M324.85,281.18c0.26,0.04-0.08,1.72,1.12,3.2c1.2,1.49,3.03,1.66,3,1.89
																					c0,0.11-0.47,0.25-1.23,0.12c-0.75-0.12-1.79-0.58-2.52-1.49c-0.73-0.91-0.92-1.96-0.83-2.66
																					C324.47,281.52,324.74,281.14,324.85,281.18z"/>
																			</g>
																		</g>
																	</g>
																</g>
															</g>
														</g>
													</g>
												</g>
											</g>
										</g>
									</g>
								</g>
								<g>
									<g>
										<g>
											<g>
												<g>
													<g>
														<g>
															<g>
																<path class="st8" d="M327.91,262.38c-0.24,0.39-1.75-0.12-3.61-0.26c-1.86-0.18-3.44,0.06-3.6-0.37
																	c-0.07-0.2,0.26-0.55,0.94-0.84c0.67-0.29,1.69-0.49,2.8-0.39c1.12,0.1,2.08,0.47,2.69,0.87
																	C327.75,261.8,328.02,262.2,327.91,262.38z"/>
															</g>
														</g>
													</g>
												</g>
											</g>
										</g>
									</g>
								</g>
								<g>
									<g>
										<g>
											<g>
												<g>
													<g>
														<g>
															<g>
																<path class="st8" d="M341.93,266.54c-0.34,0.3-1.34-0.28-2.62-0.56c-1.27-0.32-2.42-0.24-2.6-0.66
																	c-0.07-0.2,0.17-0.52,0.71-0.76c0.53-0.24,1.37-0.35,2.25-0.15c0.88,0.2,1.58,0.68,1.95,1.13
																	C342.01,266,342.09,266.39,341.93,266.54z"/>
															</g>
														</g>
													</g>
												</g>
											</g>
										</g>
									</g>
								</g>
							</g>
						</g>
					</g>
				</g>
			</g>
			<g>
				<g>
					<g>
						<g>
							<g>
								<g>
									<g>
										<g>
											<g>
												<path class="st13" d="M308.81,270.41c-0.16-0.11-6.53-3.44-7.69,3.51c-1.16,6.95,6.05,6.68,6.1,6.48
													C307.27,280.2,308.81,270.41,308.81,270.41z"/>
											</g>
										</g>
									</g>
								</g>
							</g>
						</g>
					</g>
				</g>
				<g>
					<g>
						<g>
							<g>
								<g>
									<g>
										<g>
											<g>
												<g>
													<path class="st14" d="M305.54,277.41c-0.03-0.03-0.14,0.06-0.36,0.12c-0.21,0.06-0.57,0.06-0.91-0.13
														c-0.69-0.39-1.11-1.66-0.94-2.92c0.09-0.64,0.32-1.22,0.63-1.68c0.3-0.47,0.68-0.77,1.07-0.78
														c0.38-0.02,0.61,0.24,0.66,0.45c0.06,0.21-0.01,0.34,0.03,0.36c0.02,0.02,0.17-0.09,0.16-0.39
														c-0.01-0.14-0.06-0.32-0.2-0.48c-0.14-0.16-0.38-0.27-0.64-0.29c-0.54-0.05-1.11,0.36-1.44,0.87
														c-0.37,0.5-0.64,1.15-0.74,1.87c-0.19,1.41,0.31,2.84,1.26,3.29c0.47,0.21,0.9,0.13,1.14,0
														C305.5,277.58,305.56,277.43,305.54,277.41z"/>
												</g>
											</g>
										</g>
									</g>
								</g>
							</g>
						</g>
					</g>
				</g>
			</g>
			<g>
				<path class="st8" d="M347.32,264.95c-4.68,0.3-9.46-1.83-12.37-5.51c-2.04-2.57-3.34-5.95-6.23-7.51
					c-1.94-1.05-4.34-1.06-6.44-0.4c-2.11,0.67-3.96,1.96-5.63,3.42c0.93,5.52-1.53,10.99-3.92,16.05
					c-0.26,0.56-0.57,1.16-1.12,1.43c-0.94,0.46-2.07-0.27-2.63-1.16c-0.9-1.42-1.01-3.19-0.97-4.87c0.08-3.83,0.75-7.68,2.3-11.18
					c1.56-3.5,4.03-6.64,7.26-8.7c4.04-2.57,9.14-3.3,13.82-2.29c4.68,1.01,8.93,3.69,12.11,7.27c1.48,1.66,2.76,3.57,3.26,5.73"/>
			</g>
		</g>
	</g>
</g>
<g id="Plant">
	<g>
		<g>
			<g>
				<g>
					<g>
						<path class="st8" d="M67.46,427.85c-0.01-0.01,0.05-0.15,0.18-0.42c0.14-0.3,0.33-0.7,0.57-1.21
							c0.48-1.07,1.11-2.68,1.66-4.84c1.1-4.3,1.49-10.87-0.14-18.68c-0.76-3.91-1.98-8.1-3.46-12.54
							c-1.47-4.45-3.17-9.18-4.56-14.28c-1.38-5.09-2.46-10.62-2.25-16.42c0.21-5.81,1.93-11.61,3.82-17.38
							c1.89-5.78,3.84-11.43,4.42-17.11c0.66-5.67-0.55-11.24-3.14-15.8c-2.5-4.61-5.65-8.56-8.01-12.64
							c-2.39-4.07-3.89-8.26-4.81-12.15c-1.79-7.85-1.16-14.47-0.31-18.83c0.93-4.38,1.96-6.65,1.96-6.65
							c0.01,0-0.03,0.15-0.12,0.44c-0.1,0.31-0.23,0.74-0.4,1.27c-0.35,1.12-0.8,2.79-1.22,4.98c-0.78,4.35-1.34,10.92,0.49,18.69
							c0.94,3.85,2.44,7.98,4.83,12c2.35,4.04,5.51,7.96,8.07,12.63c2.64,4.61,3.91,10.36,3.24,16.13
							c-0.59,5.78-2.56,11.47-4.44,17.24c-1.89,5.77-3.59,11.5-3.81,17.21c-0.21,5.71,0.84,11.18,2.2,16.25
							c1.37,5.08,3.05,9.81,4.5,14.27c1.47,4.46,2.67,8.68,3.41,12.62c1.59,7.86,1.13,14.5-0.05,18.81
							c-0.6,2.16-1.26,3.77-1.78,4.83c-0.26,0.5-0.47,0.89-0.62,1.19C67.55,427.72,67.47,427.85,67.46,427.85z"/>
					</g>
				</g>
			</g>
			<g>
				<g>
					<g>
						<path class="st9" d="M59.75,300.55c0,0-4.79-15.3,3.8-24.26c0.3-0.31,0.83-0.17,0.91,0.26
							C64.92,279.08,65.49,286.78,59.75,300.55z"/>
					</g>
				</g>
				<g>
					<g>
						<g>
							<path class="st8" d="M62.62,281.39c0.08,0.02-0.06,1.09-0.32,2.82c-0.31,1.94-0.68,4.23-1.09,6.75
								c-0.4,2.52-0.76,4.81-1.07,6.75c-0.26,1.73-0.42,2.8-0.51,2.79c-0.08-0.01-0.07-1.09,0.09-2.84c0.16-1.75,0.47-4.15,0.9-6.79
								c0.43-2.64,0.89-5.02,1.27-6.73C62.25,282.42,62.54,281.37,62.62,281.39z"/>
						</g>
					</g>
				</g>
			</g>
			<g>
				<g>
					<g>
						<path class="st9" d="M65.37,336.65c0,0,2.93-15.77,14.71-19.67c0.41-0.14,0.81,0.24,0.68,0.66
							C79.98,320.08,76.89,327.16,65.37,336.65z"/>
					</g>
				</g>
				<g>
					<g>
						<g>
							<path class="st8" d="M76.87,321.05c0.06,0.05-0.56,0.94-1.61,2.35c-1.19,1.57-2.58,3.42-4.12,5.46
								c-1.53,2.04-2.92,3.89-4.1,5.47c-1.04,1.41-1.68,2.28-1.75,2.23c-0.07-0.04,0.45-1,1.41-2.47c0.96-1.47,2.36-3.45,3.97-5.58
								c1.62-2.13,3.14-4.02,4.27-5.36C76.06,321.79,76.8,321,76.87,321.05z"/>
						</g>
					</g>
				</g>
			</g>
			<g>
				<g>
					<g>
						<path class="st9" d="M62.19,376.2c0,0-1.78-15.94,8.36-23.09c0.36-0.25,0.85,0,0.84,0.43
							C71.36,356.1,70.45,363.77,62.19,376.2z"/>
					</g>
				</g>
				<g>
					<g>
						<g>
							<path class="st8" d="M68.66,357.93c0.08,0.03-0.26,1.06-0.85,2.71c-0.68,1.85-1.48,4.02-2.36,6.42
								c-0.87,2.4-1.67,4.57-2.34,6.42c-0.59,1.65-0.95,2.67-1.03,2.65c-0.07-0.02,0.14-1.09,0.63-2.78
								c0.49-1.69,1.25-3.99,2.18-6.5c0.93-2.51,1.83-4.76,2.53-6.37C68.1,358.88,68.58,357.9,68.66,357.93z"/>
						</g>
					</g>
				</g>
			</g>
			<g>
				<g>
					<g>
						<path class="st9" d="M71.06,415.98c0,0-1.21-15.99,9.18-22.78c0.36-0.24,0.85,0.03,0.83,0.46
							C80.94,396.23,79.76,403.86,71.06,415.98z"/>
					</g>
				</g>
				<g>
					<g>
						<g>
							<path class="st8" d="M78.18,397.96c0.08,0.03-0.3,1.05-0.95,2.68c-0.75,1.82-1.62,3.96-2.59,6.33
								c-0.96,2.37-1.83,4.51-2.57,6.33c-0.65,1.62-1.04,2.63-1.12,2.61c-0.07-0.02,0.18-1.08,0.73-2.75
								c0.55-1.67,1.39-3.94,2.41-6.42c1.02-2.47,2-4.69,2.75-6.27C77.59,398.88,78.11,397.92,78.18,397.96z"/>
						</g>
					</g>
				</g>
			</g>
			<g>
				<g>
					<g>
						<path class="st9" d="M52.87,287.11c0,0-14.21-7.42-14.49-19.83c-0.01-0.44,0.47-0.71,0.83-0.46
							C41.32,268.28,47.17,273.31,52.87,287.11z"/>
					</g>
				</g>
				<g>
					<g>
						<g>
							<path class="st8" d="M41.33,271.54c0.07-0.05,0.73,0.81,1.77,2.22c1.15,1.6,2.51,3.47,4.01,5.54
								c1.5,2.07,2.86,3.93,4.02,5.53c1.04,1.41,1.69,2.27,1.62,2.33c-0.06,0.05-0.82-0.72-1.95-2.07
								c-1.13-1.35-2.61-3.26-4.17-5.44c-1.56-2.17-2.92-4.18-3.87-5.65C41.8,272.53,41.26,271.59,41.33,271.54z"/>
						</g>
					</g>
				</g>
			</g>
			<g>
				<g>
					<g>
						<path class="st9" d="M68.13,319.97c0,0-14.64-6.55-15.67-18.91c-0.04-0.43,0.43-0.73,0.8-0.51
							C55.46,301.88,61.61,306.55,68.13,319.97z"/>
					</g>
				</g>
				<g>
					<g>
						<g>
							<path class="st8" d="M55.67,305.14c0.07-0.05,0.78,0.77,1.9,2.11c1.25,1.52,2.72,3.31,4.34,5.29
								c1.63,1.97,3.1,3.75,4.35,5.27c1.12,1.34,1.82,2.17,1.76,2.23c-0.06,0.05-0.87-0.67-2.07-1.95c-1.21-1.28-2.8-3.1-4.5-5.17
								c-1.69-2.07-3.17-3.99-4.21-5.41C56.2,306.1,55.6,305.19,55.67,305.14z"/>
						</g>
					</g>
				</g>
			</g>
			<g>
				<g>
					<g>
						<path class="st9" d="M59.71,356.64c0,0-10.05-12.49-5.34-23.97c0.17-0.4,0.71-0.46,0.94-0.09
							C56.67,334.76,60.02,341.71,59.71,356.64z"/>
					</g>
				</g>
				<g>
					<g>
						<g>
							<path class="st8" d="M55.37,337.75c0.08-0.01,0.35,1.04,0.73,2.75c0.42,1.93,0.91,4.18,1.45,6.68
								c0.55,2.49,1.05,4.75,1.47,6.67c0.39,1.7,0.63,2.76,0.55,2.79c-0.07,0.02-0.47-0.99-0.96-2.68
								c-0.49-1.69-1.08-4.04-1.65-6.65c-0.56-2.62-1-5-1.28-6.73C55.41,338.84,55.29,337.76,55.37,337.75z"/>
						</g>
					</g>
				</g>
			</g>
			<g>
				<g>
					<g>
						<path class="st9" d="M69.67,399.78c0,0-14.53-6.79-15.35-19.17c-0.03-0.43,0.44-0.73,0.81-0.49
							C57.3,381.48,63.37,386.25,69.67,399.78z"/>
					</g>
				</g>
				<g>
					<g>
						<g>
							<path class="st8" d="M57.45,384.73c0.07-0.05,0.77,0.78,1.87,2.14c1.22,1.54,2.66,3.36,4.25,5.36c1.59,2,3.03,3.8,4.26,5.34
								c1.1,1.36,1.78,2.2,1.72,2.26c-0.06,0.05-0.86-0.69-2.04-1.98c-1.18-1.3-2.75-3.15-4.41-5.25c-1.66-2.1-3.1-4.04-4.11-5.48
								C57.97,385.7,57.39,384.78,57.45,384.73z"/>
						</g>
					</g>
				</g>
			</g>
			<g>
				<g>
					<g>
						<g>
							<path class="st8" d="M98.6,336.73c0.01,0,0.02,0.12,0.02,0.35c-0.01,0.28-0.02,0.62-0.03,1.03c-0.04,0.96-0.1,2.26-0.17,3.89
								c-0.19,3.42-0.45,8.18-0.76,13.88l0,0.01l0,0.02c-1.04,5.8-3.99,12.23-7.96,18.48c-2.91,4.6-5.96,8.78-8.6,12.67
								c-2.65,3.88-4.89,7.47-6.44,10.65c-1.57,3.18-2.48,5.91-3.01,7.82c-0.26,0.96-0.45,1.7-0.56,2.22
								c-0.12,0.51-0.19,0.78-0.21,0.77c-0.02,0,0.01-0.28,0.09-0.8c0.07-0.52,0.23-1.28,0.45-2.25c0.47-1.94,1.33-4.71,2.86-7.94
								c1.52-3.23,3.74-6.87,6.37-10.78c2.61-3.92,5.65-8.1,8.55-12.68c3.95-6.21,6.89-12.55,7.96-18.26l0,0.03
								c0.4-5.7,0.73-10.46,0.97-13.87c0.13-1.62,0.24-2.92,0.31-3.88c0.04-0.41,0.07-0.74,0.1-1.02
								C98.56,336.85,98.59,336.73,98.6,336.73z"/>
						</g>
					</g>
				</g>
				<g>
					<g>
						<g>
							<path class="st9" d="M89.95,373.2c0,0,6.15-14.81-1.59-24.51c-0.27-0.34-0.81-0.24-0.93,0.18
								C86.75,351.35,85.48,358.96,89.95,373.2z"/>
						</g>
					</g>
					<g>
						<g>
							<g>
								<path class="st8" d="M88.83,353.86c0.08-0.01,0.27,1.06,0.49,2.8c0.22,1.74,0.46,4.15,0.65,6.82
									c0.19,2.67,0.28,5.09,0.28,6.85c0,1.76-0.09,2.84-0.17,2.84c-0.09,0-0.15-1.08-0.25-2.83c-0.13-1.96-0.29-4.27-0.46-6.82
									c-0.18-2.55-0.34-4.86-0.48-6.82C88.79,354.95,88.75,353.86,88.83,353.86z"/>
							</g>
						</g>
					</g>
					<g class="st11">
						<g>
							<path d="M89.95,373.2c0,0,6.15-14.81-1.59-24.51c-0.27-0.34-0.81-0.24-0.93,0.18C86.75,351.35,85.48,358.96,89.95,373.2z"/>
						</g>
					</g>
				</g>
				<g>
					<g>
						<g>
							<path class="st9" d="M70.9,408.88c0,0,4.93-15.26-3.57-24.3c-0.3-0.32-0.83-0.17-0.91,0.25
								C65.93,387.36,65.29,395.05,70.9,408.88z"/>
						</g>
					</g>
					<g>
						<g>
							<g>
								<path class="st8" d="M68.21,389.69c0.08-0.02,0.36,1.04,0.71,2.75c0.36,1.72,0.8,4.1,1.2,6.74c0.41,2.64,0.69,5.05,0.84,6.8
									c0.14,1.75,0.14,2.84,0.06,2.85c-0.09,0.01-0.23-1.07-0.48-2.8c-0.29-1.95-0.63-4.23-1.01-6.76
									c-0.38-2.53-0.73-4.81-1.03-6.76C68.26,390.79,68.13,389.71,68.21,389.69z"/>
							</g>
						</g>
					</g>
					<g class="st11">
						<g>
							<path d="M70.9,408.88c0,0,4.93-15.26-3.57-24.3c-0.3-0.32-0.83-0.17-0.91,0.25C65.93,387.36,65.29,395.05,70.9,408.88z"/>
						</g>
					</g>
				</g>
				<g>
					<g>
						<g>
							<path class="st9" d="M97.78,355.11c0,0,13.14-9.2,11.81-21.53c-0.05-0.43-0.56-0.64-0.88-0.35
								C106.81,334.95,101.65,340.69,97.78,355.11z"/>
						</g>
					</g>
					<g class="st11">
						<g>
							<path d="M97.78,355.11c0,0,13.14-9.2,11.81-21.53c-0.05-0.43-0.56-0.64-0.88-0.35C106.81,334.95,101.65,340.69,97.78,355.11z
								"/>
						</g>
					</g>
					<g>
						<g>
							<g>
								<path class="st8" d="M107.22,338.18c0.07,0.04-0.34,1.04-1.09,2.63c-0.75,1.58-1.84,3.75-3.11,6.1
									c-1.27,2.36-2.49,4.45-3.44,5.93c-0.95,1.48-1.6,2.35-1.67,2.3c-0.07-0.05,0.46-0.99,1.3-2.52c0.94-1.73,2.05-3.76,3.27-6
									c1.22-2.25,2.32-4.28,3.26-6.01C106.6,339.08,107.14,338.14,107.22,338.18z"/>
							</g>
						</g>
					</g>
				</g>
				<g>
					<g>
						<g>
							<path class="st9" d="M76.19,393.76c0,0,15.84-2.47,20.09-14.13c0.15-0.41-0.22-0.82-0.64-0.7
								C93.17,379.63,86.01,382.52,76.19,393.76z"/>
						</g>
					</g>
					<g class="st11">
						<g>
							<path d="M76.19,393.76c0,0,15.84-2.47,20.09-14.13c0.15-0.41-0.22-0.82-0.64-0.7C93.17,379.63,86.01,382.52,76.19,393.76z"/>
						</g>
					</g>
					<g>
						<g>
							<g>
								<path class="st8" d="M92.12,382.72c0.05,0.07-0.76,0.78-2.14,1.88c-1.37,1.09-3.3,2.56-5.48,4.11
									c-2.18,1.56-4.2,2.9-5.7,3.81c-1.5,0.91-2.47,1.4-2.51,1.33c-0.04-0.08,0.85-0.69,2.28-1.69c1.61-1.14,3.5-2.47,5.58-3.94
									c2.08-1.48,3.97-2.82,5.57-3.96C91.16,383.25,92.07,382.65,92.12,382.72z"/>
							</g>
						</g>
					</g>
				</g>
			</g>
		</g>
		<g>
			<g>
				<polygon class="st12" points="61.08,422.92 56.46,454.02 85.26,454.02 81.52,422.92 				"/>
			</g>
		</g>
		<g>
			<g>
				<g>
					<path class="st8" d="M82.68,432.55c0,0.17-5.2,0.3-11.61,0.3c-6.42,0-11.61-0.13-11.61-0.3c0-0.17,5.2-0.3,11.61-0.3
						C77.48,432.25,82.68,432.39,82.68,432.55z"/>
				</g>
			</g>
		</g>
		<g>
			<g>
				<g>
					<path class="st8" d="M83.25,435.03c0,0.17-5.37,0.3-11.99,0.3c-6.63,0-11.99-0.13-11.99-0.3c0-0.17,5.37-0.3,11.99-0.3
						C77.88,434.73,83.25,434.86,83.25,435.03z"/>
				</g>
			</g>
		</g>
	</g>
</g>
</svg>
