<?xml version="1.0" encoding="utf-8"?>
<!-- Generator: Adobe Illustrator 24.0.1, SVG Export Plug-In . SVG Version: 6.00 Build 0)  -->
<svg version="1.1" id="Capa_1" xmlns="http://www.w3.org/2000/svg" xmlns:xlink="http://www.w3.org/1999/xlink" x="0px" y="0px"
	 viewBox="0 0 104.66 104.67" style="enable-background:new 0 0 104.66 104.67;" xml:space="preserve">
<style type="text/css">
	.st0{fill:#2093A4;}
	.st1{clip-path:url(#SVGID_2_);}
	.st2{fill:#FBBCA0;}
	.st3{fill:#E6E7E8;}
	.st4{fill:#DDA78F;}
	.st5{fill:#FFFFFF;}
	.st6{fill:#174748;}
	.st7{fill:#EC524F;}
	.st8{fill:#D1D3D4;}
	.st9{fill:#023435;}
	.st10{fill:#E2E3E4;}
	.st11{fill:#160100;}
	.st12{fill:#1E0500;}
</style>
<circle class="st0" cx="52.33" cy="52.33" r="52.33"/>
<g>
	<defs>
		<circle id="SVGID_1_" cx="52.33" cy="52.33" r="52.33"/>
	</defs>
	<clipPath id="SVGID_2_">
		<use xlink:href="#SVGID_1_"  style="overflow:visible;"/>
	</clipPath>
	<g class="st1">
		<rect x="42.75" y="65.78" class="st2" width="20.04" height="13.5"/>
		<path class="st3" d="M47.61,75.55c3.02,1.2,6.33,1.92,9.58,1.95c1.86,0.02,3.76-0.22,5.6-0.54V65.78H42.75v6.98
			C44.16,74.01,45.96,74.89,47.61,75.55z"/>
		<g>
			<path class="st2" d="M73.7,40.78c0.06-0.49,0.88-1.29,1.23-1.56c0.79-0.6,1.59,0.02,1.83,0.8c0.21,0.7,0.23,1.49,0.28,2.21
				c0.12,1.77-0.14,3.51-0.92,5.11c-0.52,1.07-1.34,1.94-2.3,2.6c0,0-1.04,0.53-1.25-0.69C72.57,49.25,73.7,40.78,73.7,40.78z"/>
			<path class="st4" d="M73.53,41.84c0.05-0.35,0.63-0.92,0.88-1.12c0.57-0.43,1.14,0.01,1.31,0.57c0.15,0.5,0.16,1.06,0.2,1.58
				c0.09,1.27-0.1,2.51-0.66,3.65c-0.37,0.76-0.96,1.39-1.65,1.86c0,0-0.75,0.38-0.89-0.49C72.72,47.91,73.53,41.84,73.53,41.84z"/>
		</g>
		<g>
			<path class="st2" d="M31.34,40.78c-0.07-0.49-0.88-1.29-1.24-1.56c-0.79-0.6-1.59,0.02-1.83,0.8c-0.21,0.7-0.23,1.49-0.28,2.21
				c-0.12,1.77,0.14,3.51,0.92,5.11c0.52,1.07,1.34,1.94,2.3,2.6c0,0,1.04,0.53,1.25-0.69C32.47,49.25,31.34,40.78,31.34,40.78z"/>
			<path class="st4" d="M31.51,41.84c-0.05-0.35-0.63-0.92-0.88-1.12c-0.57-0.43-1.14,0.01-1.31,0.57c-0.15,0.5-0.16,1.06-0.2,1.58
				c-0.09,1.27,0.1,2.51,0.66,3.65c0.37,0.76,0.96,1.39,1.65,1.86c0,0,0.75,0.38,0.89-0.49C32.31,47.91,31.51,41.84,31.51,41.84z"/>
		</g>
		<path class="st2" d="M74.33,42.37c0,5.59-0.94,11.24-3.52,16.08c-2.25,4.23-5.63,7.62-9.25,10.32c-2.94,2.19-6.09,4.75-9.82,4.44
			c-3.88-0.33-6.9-3.71-9.74-6.35c-3.99-3.72-7.13-8.33-9.07-13.76c-1.19-3.34-1.74-7.12-1.74-10.72c0-18.07,9.66-29.43,21.57-29.43
			C64.68,12.94,74.33,24.3,74.33,42.37z"/>
		<path class="st2" d="M87.77,85.39l-24.98-6.53H52.77H42.75l-24.98,6.53c0,0-11.57,4.29-12.86,17.86h47.86h47.86
			C99.35,89.68,87.77,85.39,87.77,85.39z"/>
		<path class="st5" d="M87.77,85.39l-24.98-6.53H52.77H42.75l-24.98,6.53c0,0-11.57,4.29-12.86,17.86h47.86h47.86
			C99.35,89.68,87.77,85.39,87.77,85.39z"/>
		<path class="st6" d="M87.77,85.39l-18.48-4.83l-16.51,22.7L36.44,80.51l-18.66,4.88c0,0-11.57,4.29-12.86,17.86h47.86h47.86
			C99.35,89.68,87.77,85.39,87.77,85.39z"/>
		<polygon class="st7" points="50.58,91.88 45.98,103.25 59.06,103.25 54.57,91.88 		"/>
		<g>
			<polygon class="st7" points="52.47,79.08 46.61,86.94 50.69,91.91 52.68,91.88 54.67,91.85 58.58,86.75 			"/>
			<path class="st8" d="M56.39,85.91c-0.75,1.48-2.14,3.17-4.04,2.75c-1.96-0.43-2.86-2.28-2.4-4.16c0.44-1.83,1.62-3.36,2.28-5.09
				l-5.62,7.53l4.07,4.97l3.99-0.06l3.91-5.1l-1.65-2.07C56.77,85.1,56.59,85.51,56.39,85.91z"/>
		</g>
		<polygon class="st9" points="52.77,103.25 36.44,80.51 23.38,83.93 40.07,95.68 35.78,97.57 43.5,103.25 		"/>
		<polygon class="st9" points="52.77,103.29 69.11,80.54 82.17,83.96 65.48,95.71 69.77,97.6 62.05,103.29 		"/>
		<polygon class="st10" points="32.92,79.34 42.72,74.74 52.71,78.91 62.69,74.74 73.16,79.34 58.36,89.25 52.71,81.15 46.61,89.25 
					"/>
		<path class="st11" d="M65.4,65.5c0,0,5.41-5.12,6.61-9.64c0,0-6.39,5.76-8.62,5.15L65.4,65.5z"/>
		<path class="st11" d="M41.65,67.03c0,0-6.28-5.38-8-12.12c0,0,7.16,8.27,9.39,7.65L41.65,67.03z"/>
		<path class="st12" d="M56.59,58.17c3.55,0.05,5.48,1.27,5.48,1.27c3.11,1.47,3.91,5.46,3.91,5.46s-2.14,2.37-4.76,4.05
			c-5.91,4.9-8.62,4.28-8.62,4.28c-3.36,0.01-5.72-2.1-5.72-2.1l-5.53-4.33c-0.69-4.92,3.61-7.36,3.61-7.36
			c2.58-1.25,3.04-1.08,3.04-1.08s3.86-0.45,4.8,1.08c0,0,0.97-1.27,3.6-1.27"/>
		<g>
			<path class="st2" d="M53.29,62.22c0,0-2.43-1.21-5.96,0.09c0,0,5.36,5.68,11.44,0.07C58.78,62.38,55.52,60.86,53.29,62.22z"/>
		</g>
	</g>
</g>
</svg>
