<?xml version="1.0" encoding="utf-8"?>
<!-- Generator: Adobe Illustrator 24.0.1, SVG Export Plug-In . SVG Version: 6.00 Build 0)  -->
<svg version="1.1" id="Capa_1" xmlns="http://www.w3.org/2000/svg" xmlns:xlink="http://www.w3.org/1999/xlink" x="0px" y="0px"
	 viewBox="0 0 104.67 104.67" style="enable-background:new 0 0 104.67 104.67;" xml:space="preserve">
<style type="text/css">
	.st0{fill:#F6B05C;}
	.st1{clip-path:url(#SVGID_2_);}
	.st2{fill:#460209;}
	.st3{fill:#FBBCA0;}
	.st4{fill:#E6E7E8;}
	.st5{fill:#DDA78F;}
	.st6{fill:#056F8C;}
	.st7{fill:#6B1D24;}
	.st8{fill:#3C2415;}
</style>
<ellipse transform="matrix(0.1576 -0.9875 0.9875 0.1576 -7.5942 95.7627)" class="st0" cx="52.33" cy="52.33" rx="52.33" ry="52.33"/>
<g>
	<defs>
		
			<ellipse id="SVGID_1_" transform="matrix(0.1576 -0.9875 0.9875 0.1576 -7.5942 95.7627)" cx="52.33" cy="52.33" rx="52.33" ry="52.33"/>
	</defs>
	<clipPath id="SVGID_2_">
		<use xlink:href="#SVGID_1_"  style="overflow:visible;"/>
	</clipPath>
	<g class="st1">
		<path class="st2" d="M28.38,49.11c-0.29,0.43-1.19,36.82,5.2,44.27h36.2c0,0,9.89-27.94,3.15-44.27H28.17"/>
		<g>
			<rect x="42.89" y="69.12" class="st3" width="20.04" height="13.5"/>
			<path class="st4" d="M47.75,78.88c3.02,1.2,6.33,1.92,9.58,1.95c1.86,0.01,3.76-0.22,5.6-0.54V69.12H42.89v6.98
				C44.3,77.34,46.09,78.23,47.75,78.88z"/>
			<g>
				<path class="st3" d="M74.6,43.71c0.07-0.5,0.91-1.31,1.28-1.58c0.82-0.61,1.65,0.02,1.89,0.81c0.21,0.71,0.23,1.51,0.29,2.24
					c0.13,1.79-0.15,3.55-0.95,5.17c-0.54,1.08-1.38,1.97-2.38,2.64c0,0-1.08,0.54-1.29-0.7C73.43,52.29,74.6,43.71,74.6,43.71z"/>
				<path class="st5" d="M74.43,44.78c0.05-0.36,0.65-0.93,0.92-1.13c0.59-0.44,1.18,0.01,1.36,0.58c0.15,0.51,0.17,1.08,0.21,1.6
					c0.09,1.28-0.11,2.54-0.68,3.7c-0.39,0.77-0.99,1.41-1.71,1.89c0,0-0.77,0.38-0.92-0.5C73.6,50.93,74.43,44.79,74.43,44.78z"/>
			</g>
			<g>
				<path class="st3" d="M30.71,43.71c-0.07-0.5-0.91-1.31-1.28-1.58c-0.82-0.61-1.65,0.02-1.89,0.81
					c-0.22,0.71-0.24,1.51-0.29,2.24c-0.13,1.79,0.15,3.55,0.95,5.17c0.54,1.08,1.38,1.97,2.38,2.64c0,0,1.08,0.54,1.29-0.7
					C31.88,52.29,30.71,43.71,30.71,43.71z"/>
				<path class="st5" d="M30.88,44.78c-0.05-0.36-0.65-0.93-0.92-1.13c-0.59-0.44-1.18,0.01-1.35,0.58
					c-0.15,0.51-0.17,1.08-0.21,1.6c-0.09,1.28,0.11,2.54,0.68,3.7c0.39,0.77,0.99,1.41,1.71,1.89c0,0,0.77,0.38,0.93-0.5
					C31.72,50.93,30.88,44.79,30.88,44.78z"/>
			</g>
			<path class="st3" d="M75.26,45.32c0,5.66-0.98,11.38-3.64,16.27c-2.33,4.28-5.83,7.71-9.59,10.45
				c-3.05,2.22-6.32,4.81-10.17,4.49c-4.02-0.33-7.15-3.76-10.09-6.43c-4.13-3.76-7.39-8.43-9.4-13.93
				c-1.24-3.39-1.81-7.21-1.81-10.86c0-18.29,10.01-29.79,22.35-29.79C65.25,15.53,75.26,27.03,75.26,45.32z"/>
			<path class="st3" d="M83.4,88.72l-21.76-6.53h-8.73h-8.73l-21.76,6.53c0,0-10.08,4.29-11.2,17.86h41.7h41.7
				C93.49,93.01,83.4,88.72,83.4,88.72z"/>
			<path class="st6" d="M83.4,88.72l-12.03-3.61l-18.46,18.44L34.4,85.13l-11.98,3.59c0,0-10.08,4.29-11.2,17.86h41.7h41.7
				C93.49,93.01,83.4,88.72,83.4,88.72z"/>
		</g>
		<path class="st7" d="M37.74,22.79c0,0,10.76,17.07,37.45,19.98c0,0,5.05-19.45-13.72-28.9C61.47,13.86,47.11,7.94,37.74,22.79z"/>
		<path class="st8" d="M40.5,26.25c0,0-6.95,4.5-9.97,17.05c0,0-3.23-23.65,13.49-26.6L40.5,26.25z"/>
		<path class="st7" d="M67.78,40.8c0,0,7.16,45.56-4.16,58.46c0,0,14.47-2.15,15.19-22.07c0,0,2.58-40.69-7.21-54.73L67.78,40.8z"/>
		<path class="st7" d="M37.16,99.26c0,0-16.66-1.98-12.08-53.21c0,0,1.15-28.46,17.81-29.11l-0.96,10.8c0,0-9.58,2.85-8.34,25.37
			C33.59,53.1,32.61,89.37,37.16,99.26z"/>
	</g>
</g>
</svg>
