<?xml version="1.0" encoding="utf-8"?>
<!-- Generator: Adobe Illustrator 24.0.1, SVG Export Plug-In . SVG Version: 6.00 Build 0)  -->
<svg version="1.1" id="Capa_1" xmlns="http://www.w3.org/2000/svg" xmlns:xlink="http://www.w3.org/1999/xlink" x="0px" y="0px"
	 viewBox="0 0 104.67 104.67" style="enable-background:new 0 0 104.67 104.67;" xml:space="preserve">
<style type="text/css">
	.st0{fill:#E7515A;}
	.st1{clip-path:url(#SVGID_2_);}
	.st2{fill:#A36625;}
	.st3{fill:#FBBCA0;}
	.st4{fill:#E6E7E8;}
	.st5{fill:#DDA78F;}
	.st6{fill:#00B9C5;}
	.st7{fill:#FBB040;}
</style>
<circle class="st0" cx="52.33" cy="52.33" r="52.33"/>
<g>
	<defs>
		<circle id="SVGID_1_" cx="52.33" cy="52.33" r="52.33"/>
	</defs>
	<clipPath id="SVGID_2_">
		<use xlink:href="#SVGID_1_"  style="overflow:visible;"/>
	</clipPath>
	<g class="st1">
		<g>
			<path class="st2" d="M27.8,48.01c-0.29,0.43-1.19,36.82,5.2,44.27h36.2c0,0,9.89-27.94,3.15-44.27H27.59"/>
			<g>
				<rect x="42.31" y="68.01" class="st3" width="20.04" height="13.5"/>
				<path class="st4" d="M47.17,77.78c3.02,1.2,6.33,1.92,9.58,1.95c1.86,0.01,3.76-0.22,5.6-0.54V68.01H42.31v6.98
					C43.72,76.23,45.52,77.12,47.17,77.78z"/>
				<g>
					<path class="st3" d="M74.02,42.6c0.07-0.5,0.91-1.31,1.28-1.58c0.82-0.61,1.65,0.02,1.89,0.81c0.21,0.71,0.24,1.51,0.29,2.24
						c0.13,1.79-0.15,3.55-0.95,5.17c-0.54,1.08-1.38,1.97-2.38,2.64c0,0-1.08,0.54-1.29-0.7C72.86,51.18,74.02,42.61,74.02,42.6z"
						/>
					<path class="st5" d="M73.85,43.68c0.05-0.36,0.65-0.93,0.92-1.13c0.59-0.44,1.18,0.01,1.36,0.58c0.15,0.51,0.17,1.08,0.21,1.6
						c0.09,1.28-0.11,2.54-0.68,3.7c-0.39,0.77-0.99,1.41-1.71,1.89c0,0-0.77,0.38-0.92-0.5C73.02,49.82,73.85,43.68,73.85,43.68z"
						/>
				</g>
				<g>
					<path class="st3" d="M30.13,42.6c-0.07-0.5-0.91-1.31-1.28-1.58c-0.82-0.61-1.65,0.02-1.89,0.81
						c-0.21,0.71-0.23,1.51-0.29,2.24c-0.13,1.79,0.15,3.55,0.95,5.17c0.54,1.08,1.38,1.97,2.38,2.64c0,0,1.08,0.54,1.29-0.7
						C31.3,51.18,30.13,42.61,30.13,42.6z"/>
					<path class="st5" d="M30.3,43.68c-0.05-0.36-0.65-0.93-0.92-1.13c-0.59-0.44-1.18,0.01-1.35,0.58
						c-0.15,0.51-0.17,1.08-0.21,1.6c-0.09,1.28,0.1,2.54,0.68,3.7c0.39,0.77,0.99,1.41,1.71,1.89c0,0,0.77,0.38,0.92-0.5
						C31.14,49.82,30.3,43.68,30.3,43.68z"/>
				</g>
				<path class="st3" d="M74.68,44.22c0,5.66-0.98,11.38-3.64,16.27c-2.33,4.28-5.83,7.71-9.59,10.45
					c-3.05,2.22-6.32,4.81-10.17,4.49c-4.02-0.33-7.15-3.76-10.09-6.43c-4.13-3.76-7.39-8.43-9.4-13.93
					c-1.24-3.39-1.81-7.21-1.81-10.86c0-18.29,10.01-29.79,22.35-29.79C64.68,14.42,74.68,25.93,74.68,44.22z"/>
				<path class="st3" d="M82.82,87.62l-21.76-6.53h-8.73H43.6l-21.76,6.53c0,0-10.08,4.29-11.21,17.86h41.7h41.7
					C92.91,91.91,82.82,87.62,82.82,87.62z"/>
				<path class="st6" d="M76.35,85.68l-5.56-1.67l-18.46,18.44L33.82,84.02l-4.35,1.3c0,0,1.63,6.58,0.51,20.15h22.35h22.85
					C74.06,91.91,76.35,85.68,76.35,85.68z"/>
			</g>
		</g>
		<path class="st7" d="M31.3,33.39c0,0,5.29,2.69,19.05,3.4l3.01-9.77l0.72,9.77c0,0,4.16,0.29,11.32-0.86l1.29-5.44l1.58,5.16
			c0,0,3.87-0.29,5-2.68c0,0-2.27-17.95-18.89-19.53C54.36,13.43,35.53,13.71,31.3,33.39z"/>
		<path class="st7" d="M40.17,16.22c-0.51-0.25,2.12-3.57,2.27-3.73c2.98-2.99,7.51-4.02,11.6-3.77c11,0.66,19.4,7.3,23.25,17.58
			c1.33,3.54,2.24,7.58,2.57,11.35c0,0.01,2.15,24.66,0,49.08c0,0-0.86,8.4-0.14,17.49c0,0-9.03,2.14-8.6-15.14l0.86-24.64
			l1.27-21.68c0,0,0.59-10.13-3.42-11.99C69.83,30.77,40.21,16.23,40.17,16.22z"/>
		<path class="st7" d="M46.59,13.23c0,0-18.89,0.65-17.74,27.79l1.13,1.55c0,0,6.04-16.1,15.78-19.69L46.59,13.23z"/>
		<path class="st7" d="M36.81,83.13l-7.34,2.2c-4.06-12.43-1.85-36.08-1.85-36.08s1.7,3.09,3.25,2.75c0,0,1.28,4.57,2.59,6.92
			C33.45,65.53,33.69,75.46,36.81,83.13z"/>
	</g>
</g>
</svg>
